<svg width="1152" height="1235" viewBox="0 0 1152 1235" fill="none" xmlns="http://www.w3.org/2000/svg">
<g id="StackedLogo">
<g id="Bottom Bill">
<path id="Bottom Bill_2" d="M466.828 1228.97H763.422C767.951 1228.97 772.295 1227.17 775.498 1223.96C778.701 1220.76 780.5 1216.42 780.5 1211.89V1066.61" stroke="#00FF8B" stroke-width="10.1714" stroke-linecap="round" stroke-linejoin="round"/>
<g id="Bottom Bill Glow">
<path id="Bottom Bill Glow_2" d="M466.828 1228.97H763.422C767.951 1228.97 772.295 1227.17 775.498 1223.96C778.701 1220.76 780.5 1216.42 780.5 1211.89V1066.61" stroke="white" stroke-width="3.05141" stroke-linecap="round" stroke-linejoin="round"/>
</g>
</g>
<g id="Middle Bill">
<path id="Middle Bill_2" d="M444.506 1206.59H751.135C753 1206.59 754.789 1205.85 756.108 1204.53C757.427 1203.21 758.168 1201.43 758.168 1199.56V1044.29" stroke="#00FF8B" stroke-width="10.1714" stroke-linecap="round" stroke-linejoin="round"/>
<g id="Middle Bill Glow">
<path id="Middle Bill Glow_2" d="M444.506 1206.59H751.135C753 1206.59 754.789 1205.85 756.108 1204.53C757.427 1203.21 758.168 1201.43 758.168 1199.56V1044.29" stroke="white" stroke-width="3.05141" stroke-linecap="round" stroke-linejoin="round"/>
</g>
</g>
<g id="Bill">
<path id="Vector" d="M511.616 1104.39C510.888 1107.95 509 1111.17 506.247 1113.54C503.494 1115.91 500.032 1117.31 496.404 1117.5C492.776 1117.69 489.186 1116.68 486.197 1114.61C483.209 1112.54 480.99 1109.54 479.889 1106.08C478.788 1102.62 478.867 1098.89 480.113 1095.48C481.36 1092.06 483.703 1089.16 486.777 1087.22C489.85 1085.28 493.48 1084.42 497.096 1084.77C500.713 1085.11 504.113 1086.65 506.763 1089.13" stroke="#00FF8B" stroke-width="10.1714" stroke-linecap="round" stroke-linejoin="round"/>
<path id="Vector_2" d="M674.413 1104.39C673.683 1107.95 671.794 1111.16 669.042 1113.52C666.291 1115.89 662.833 1117.28 659.21 1117.46C655.587 1117.65 652.003 1116.64 649.02 1114.57C646.037 1112.51 643.824 1109.51 642.727 1106.05C641.629 1102.59 641.71 1098.87 642.956 1095.46C644.202 1092.05 646.544 1089.16 649.613 1087.22C652.683 1085.29 656.307 1084.43 659.919 1084.77C663.53 1085.12 666.925 1086.65 669.571 1089.13" stroke="#00FF8B" stroke-width="10.1714" stroke-linecap="round" stroke-linejoin="round"/>
<path id="Vector_3" d="M531.236 1182.26H420.165V1019.96H733.837V1182.26H615.352" stroke="#00FF8B" stroke-width="10.1714" stroke-linecap="round" stroke-linejoin="round"/>
<path id="Vector_4" d="M443.503 1105.08V1076.77C447.9 1076.77 452.253 1075.9 456.315 1074.22C460.377 1072.54 464.068 1070.07 467.176 1066.96C470.285 1063.85 472.75 1060.16 474.432 1056.1C476.113 1052.03 476.978 1047.68 476.977 1043.28H545.572" stroke="#00FF8B" stroke-width="10.1714" stroke-linecap="round" stroke-linejoin="round"/>
<path id="Vector_5" d="M476.977 1158.93C476.966 1150.05 473.435 1141.55 467.158 1135.28C460.882 1129.01 452.374 1125.49 443.503 1125.49" stroke="#00FF8B" stroke-width="10.1714" stroke-linecap="round" stroke-linejoin="round"/>
<path id="Vector_6" d="M710.511 1097.96V1125.49C701.63 1125.49 693.113 1129.02 686.834 1135.3C680.554 1141.58 677.027 1150.09 677.027 1158.97H629.94" stroke="#00FF8B" stroke-width="10.1714" stroke-linecap="round" stroke-linejoin="round"/>
<path id="Vector_7" d="M608.431 1043.28H677.026C677.026 1052.16 680.554 1060.68 686.833 1066.96C693.113 1073.24 701.63 1076.77 710.51 1076.77" stroke="#00FF8B" stroke-width="10.1714" stroke-linecap="round" stroke-linejoin="round"/>
<g id="Bill Glow">
<path id="Vector_8" d="M511.616 1104.39C510.888 1107.95 509 1111.17 506.247 1113.54C503.494 1115.91 500.032 1117.31 496.404 1117.5C492.776 1117.69 489.186 1116.68 486.197 1114.61C483.209 1112.54 480.99 1109.54 479.889 1106.08C478.788 1102.62 478.867 1098.89 480.113 1095.48C481.36 1092.06 483.703 1089.16 486.777 1087.22C489.85 1085.28 493.48 1084.42 497.096 1084.77C500.713 1085.11 504.113 1086.65 506.763 1089.13" stroke="white" stroke-width="3.05141" stroke-linecap="round" stroke-linejoin="round"/>
<path id="Vector_9" d="M674.413 1104.39C673.683 1107.95 671.794 1111.16 669.042 1113.52C666.291 1115.89 662.833 1117.28 659.21 1117.46C655.587 1117.65 652.003 1116.64 649.02 1114.57C646.037 1112.51 643.824 1109.51 642.727 1106.05C641.629 1102.59 641.71 1098.87 642.956 1095.46C644.202 1092.05 646.544 1089.16 649.613 1087.22C652.683 1085.29 656.307 1084.43 659.919 1084.77C663.53 1085.12 666.925 1086.65 669.571 1089.13" stroke="white" stroke-width="3.05141" stroke-linecap="round" stroke-linejoin="round"/>
<path id="Vector_10" d="M531.236 1182.26H420.165V1019.96H733.837V1182.26H615.352" stroke="white" stroke-width="3.05141" stroke-linecap="round" stroke-linejoin="round"/>
<path id="Vector_11" d="M443.503 1105.08V1076.77C447.9 1076.77 452.253 1075.9 456.315 1074.22C460.377 1072.54 464.068 1070.07 467.176 1066.96C470.285 1063.85 472.75 1060.16 474.432 1056.1C476.113 1052.03 476.978 1047.68 476.977 1043.28H545.572" stroke="white" stroke-width="3.05141" stroke-linecap="round" stroke-linejoin="round"/>
<path id="Vector_12" d="M476.977 1158.93C476.966 1150.05 473.435 1141.55 467.158 1135.28C460.882 1129.01 452.374 1125.49 443.503 1125.49" stroke="white" stroke-width="3.05141" stroke-linecap="round" stroke-linejoin="round"/>
<path id="Vector_13" d="M710.511 1097.96V1125.49C701.63 1125.49 693.113 1129.02 686.834 1135.3C680.554 1141.58 677.027 1150.09 677.027 1158.97H629.94" stroke="white" stroke-width="3.05141" stroke-linecap="round" stroke-linejoin="round"/>
<path id="Vector_14" d="M608.431 1043.28H677.026C677.026 1052.16 680.554 1060.68 686.833 1066.96C693.113 1073.24 701.63 1076.77 710.51 1076.77" stroke="white" stroke-width="3.05141" stroke-linecap="round" stroke-linejoin="round"/>
</g>
</g>
<g id="Nib">
<path id="Vector_15" d="M558.621 1164.15L533.114 1123.02C548.243 1101.92 560.68 1075.24 571.661 1045.66C571.859 1045.32 572.163 1045.06 572.528 1044.91C572.892 1044.76 573.296 1044.73 573.676 1044.83C574.056 1044.94 574.392 1045.16 574.631 1045.48C574.869 1045.79 574.998 1046.17 574.996 1046.57V1124.1" stroke="#FFB32C" stroke-width="10.1714" stroke-linecap="round" stroke-linejoin="round"/>
<path id="Vector_16" d="M591.371 1164.15L616.878 1123.02C605.224 1104.86 599.257 1092.99 592.526 1072.29" stroke="#FFB32C" stroke-width="10.1714" stroke-linecap="round" stroke-linejoin="round"/>
<path id="Vector_17" d="M557.616 1182.26H592.527" stroke="#FFB32C" stroke-width="10.1714" stroke-linecap="round" stroke-linejoin="round"/>
<g id="Nib Glow">
<path id="Vector_18" d="M558.621 1164.15L533.114 1123.02C548.243 1101.92 560.68 1075.24 571.661 1045.66C571.859 1045.32 572.163 1045.06 572.528 1044.91C572.892 1044.76 573.296 1044.73 573.676 1044.83C574.056 1044.94 574.392 1045.16 574.631 1045.48C574.869 1045.79 574.998 1046.17 574.996 1046.57V1124.1" stroke="white" stroke-width="3.05141" stroke-linecap="round" stroke-linejoin="round"/>
<path id="Vector_19" d="M591.371 1164.15L616.878 1123.02C605.224 1104.86 599.257 1092.99 592.526 1072.29" stroke="white" stroke-width="3.05141" stroke-linecap="round" stroke-linejoin="round"/>
<path id="Vector_20" d="M557.616 1182.26H592.527" stroke="white" stroke-width="3.05141" stroke-linecap="round" stroke-linejoin="round"/>
</g>
</g>
<g id="Frame">
<path d="M391.19 1013.83C393.968 1013.84 396.217 1016.1 396.217 1018.88C396.217 1021.66 393.958 1023.92 391.172 1023.92C391.023 1023.92 390.875 1023.91 390.729 1023.9L160.186 1023.86C150.855 1023.86 141.905 1020.15 135.306 1013.55C128.708 1006.94 125 997.984 125 988.645V602.546C125 593.206 128.708 584.25 135.306 577.646C141.905 571.042 150.855 567.332 160.186 567.332H315.869C317.202 567.332 318.481 567.862 319.424 568.805C320.366 569.748 320.896 571.028 320.896 572.362C320.896 573.696 320.366 574.976 319.424 575.919C318.481 576.863 317.202 577.393 315.869 577.393H160.186C156.886 577.393 153.618 578.043 150.569 579.307C147.519 580.571 144.749 582.424 142.415 584.76C140.081 587.096 138.23 589.868 136.967 592.92C135.704 595.972 135.054 599.243 135.054 602.546V988.645C135.054 991.948 135.704 995.219 136.967 998.271C138.23 1001.32 140.081 1004.1 142.415 1006.43C144.749 1008.77 147.519 1010.62 150.569 1011.88C153.618 1013.15 156.886 1013.8 160.186 1013.8L391.19 1013.83Z" fill="#6A0BFF"/>
<path d="M780.25 1013.91V1013.89C792.512 1013.88 817.148 1013.86 817.374 1013.91L993.434 1013.8C1000.1 1013.8 1006.49 1011.15 1011.21 1006.43C1015.92 1001.71 1018.57 995.316 1018.57 988.645V602.546C1018.57 595.875 1015.92 589.477 1011.21 584.76C1006.49 580.043 1000.1 577.393 993.434 577.393H846.799C845.466 577.393 844.187 576.863 843.245 575.919C842.302 574.976 841.772 573.696 841.772 572.362C841.772 571.028 842.302 569.748 843.245 568.805C844.187 567.862 845.466 567.332 846.799 567.332H993.434C1002.77 567.332 1011.72 571.042 1018.31 577.646C1024.91 584.25 1028.62 593.206 1028.62 602.546V988.645C1028.62 997.984 1024.91 1006.94 1018.31 1013.55C1011.72 1020.15 1002.77 1023.86 993.434 1023.86L780.445 1023.99C780.437 1023.99 780.428 1023.99 780.42 1023.99C780.414 1023.99 775.375 1023.99 780.401 1023.99L780.25 1023.99V1023.99C777.542 1023.9 775.375 1021.68 775.375 1018.95C775.375 1016.22 777.542 1013.99 780.25 1013.91Z" fill="#6A0BFF"/>
<path d="M934.402 534.341C933.468 534.341 932.553 534.081 931.759 533.59C930.965 533.099 930.324 532.396 929.906 531.56C929.489 530.725 929.312 529.789 929.396 528.859C929.48 527.928 929.821 527.039 930.381 526.292L1140.21 250.011L1111.83 223.117C966.512 85.7216 776.347 10.0612 576.35 10.0612C376.353 10.0612 186.187 85.7216 40.8795 223.117L11.826 250.585L230.823 526.141C231.249 526.656 231.568 527.251 231.762 527.891C231.955 528.531 232.02 529.203 231.951 529.868C231.882 530.533 231.681 531.177 231.36 531.764C231.04 532.35 230.606 532.867 230.083 533.283C229.561 533.7 228.96 534.008 228.318 534.19C227.675 534.371 227.002 534.423 226.339 534.342C225.676 534.26 225.036 534.048 224.456 533.716C223.876 533.384 223.368 532.94 222.962 532.409L1.08923 253.231C0.307483 252.245 -0.0766267 251.002 0.0127065 249.746C0.10204 248.491 0.658322 247.314 1.57177 246.449L33.973 215.803C181.161 76.6362 373.769 0 576.35 0C778.93 0 971.538 76.6362 1118.73 215.803L1150.42 245.775C1151.33 246.627 1151.88 247.783 1151.98 249.02C1152.09 250.257 1151.73 251.488 1150.98 252.476L938.413 532.359C937.943 532.977 937.336 533.477 936.64 533.821C935.944 534.165 935.178 534.343 934.402 534.341Z" fill="#6A0BFF"/>
</g>
<g id="Frame Glow">
<path d="M158 571.5C151.435 571.5 143.971 574.688 138.167 579.779C132.35 584.881 128 592.075 128 600.25V991C128 996.31 130.834 1003.64 135.823 1009.62C140.845 1015.63 148.234 1020.5 157.5 1020.5H390.5C391.328 1020.5 392 1019.83 392 1019C392 1018.17 391.328 1017.5 390.5 1017.5H157.5C149.366 1017.5 142.755 1013.24 138.127 1007.7C133.466 1002.11 131 995.44 131 991V600.25C131 593.175 134.775 586.744 140.145 582.034C145.529 577.312 152.315 574.5 158 574.5H315.5C316.328 574.5 317 573.828 317 573C317 572.172 316.328 571.5 315.5 571.5H158Z" fill="white"/>
<path d="M995.25 571.5C1001.82 571.5 1009.28 574.688 1015.08 579.779C1020.9 584.881 1025.25 592.075 1025.25 600.25V991C1025.25 996.31 1022.42 1003.64 1017.43 1009.62C1012.4 1015.63 1005.02 1020.5 995.75 1020.5H777.25C776.422 1020.5 775.75 1019.83 775.75 1019C775.75 1018.17 776.422 1017.5 777.25 1017.5H995.75C1003.88 1017.5 1010.5 1013.24 1015.12 1007.7C1019.78 1002.11 1022.25 995.44 1022.25 991V600.25C1022.25 593.175 1018.47 586.744 1013.1 582.034C1007.72 577.312 1000.93 574.5 995.25 574.5H848C847.172 574.5 846.5 573.828 846.5 573C846.5 572.172 847.172 571.5 848 571.5H995.25Z" fill="white"/>
<path d="M934.915 530.316C934.583 530.318 934.261 530.208 934 530.005C933.681 529.763 933.472 529.405 933.417 529.008C933.363 528.612 933.467 528.211 933.708 527.892L1145.51 249.095L1114.8 220.059C968.774 82.0391 777.754 6.03667 576.852 6.03667C375.95 6.03667 184.931 82.0391 39.0096 220.059L7.60362 249.739L228.571 527.791C228.708 527.944 228.812 528.123 228.877 528.318C228.942 528.513 228.967 528.718 228.95 528.923C228.933 529.127 228.874 529.326 228.778 529.507C228.681 529.688 228.549 529.848 228.389 529.976C228.229 530.104 228.044 530.198 227.846 530.252C227.648 530.307 227.442 530.32 227.239 530.292C227.036 530.263 226.84 530.194 226.665 530.087C226.49 529.981 226.338 529.84 226.219 529.672L4.3464 250.534C4.11768 250.241 4.00553 249.873 4.03152 249.501C4.0575 249.13 4.21977 248.781 4.48714 248.522L36.8984 217.886C183.423 79.3125 375.186 3.01831 576.852 3.01831C778.518 3.01831 970.282 79.3125 1116.82 217.865L1148.52 247.828C1148.79 248.084 1148.96 248.431 1148.99 248.803C1149.02 249.174 1148.91 249.544 1148.68 249.84L936.111 529.723C935.971 529.908 935.791 530.058 935.583 530.161C935.375 530.265 935.146 530.318 934.915 530.316Z" fill="white"/>
</g>
<g id="Copy Frame">
<path id="Copy Frame_2" d="M288.559 534.271H288.398C287.67 534.248 286.956 534.066 286.305 533.74C285.654 533.413 285.082 532.949 284.628 532.379L66.4749 257.919C65.6903 256.933 65.3044 255.687 65.3938 254.43C65.4831 253.172 66.0412 251.994 66.9574 251.128C205.098 120.503 385.873 48.5757 575.998 48.5757C766.123 48.5757 946.898 120.503 1085.04 251.118C1085.94 251.97 1086.5 253.125 1086.6 254.362C1086.7 255.599 1086.34 256.83 1085.59 257.819L877.139 532.279C876.693 532.866 876.123 533.349 875.47 533.691C874.817 534.034 874.096 534.229 873.359 534.261C872.622 534.294 871.887 534.164 871.206 533.88C870.525 533.597 869.915 533.167 869.419 532.621C855.529 517.382 840.323 503.4 823.978 490.836C822.923 490.021 822.234 488.82 822.063 487.496C821.892 486.172 822.254 484.835 823.069 483.779C823.883 482.722 825.084 482.032 826.406 481.861C827.729 481.691 829.065 482.053 830.121 482.868C845.331 494.572 859.591 507.464 872.766 521.423L1074.83 255.344C939.006 128.462 762.031 58.6369 575.998 58.6369C389.965 58.6369 213.08 128.442 77.2217 255.273L288.85 521.513C302.55 506.893 317.337 493.332 333.084 480.946C334.134 480.148 335.455 479.795 336.763 479.963C338.071 480.13 339.261 480.806 340.076 481.843C340.891 482.88 341.266 484.197 341.12 485.508C340.974 486.82 340.32 488.022 339.297 488.854C322.459 502.116 306.752 516.755 292.339 532.621C291.861 533.148 291.277 533.567 290.625 533.852C289.974 534.136 289.269 534.279 288.559 534.271Z" fill="#6A0BFF"/>
<g id="Copy Frame Glow">
<path id="Copy Frame Glow_2" d="M873.641 530.246C873.431 530.245 873.224 530.201 873.032 530.116C872.84 530.031 872.667 529.908 872.525 529.753C858.497 514.347 843.14 500.206 826.633 487.496C826.462 487.38 826.317 487.231 826.207 487.057C826.096 486.884 826.022 486.689 825.99 486.486C825.957 486.282 825.967 486.074 826.017 485.875C826.068 485.675 826.159 485.488 826.285 485.325C826.411 485.162 826.569 485.026 826.749 484.926C826.929 484.827 827.128 484.765 827.333 484.745C827.537 484.725 827.744 484.747 827.94 484.81C828.136 484.873 828.317 484.976 828.472 485.112C844.643 497.551 859.72 511.351 873.54 526.363L1080.07 254.418C943.279 125.564 764.494 54.6124 576.5 54.6124C388.507 54.6124 209.742 125.554 72.9591 254.418L289.102 526.413C303.435 510.78 319.008 496.331 335.668 483.21C335.982 482.962 336.382 482.849 336.78 482.896C337.178 482.943 337.541 483.147 337.789 483.462C338.037 483.776 338.15 484.177 338.102 484.575C338.055 484.973 337.852 485.336 337.538 485.584C320.538 498.963 304.683 513.737 290.137 529.753C289.991 529.914 289.813 530.042 289.613 530.127C289.413 530.212 289.198 530.253 288.981 530.246C288.762 530.235 288.548 530.179 288.352 530.08C288.156 529.981 287.984 529.842 287.845 529.673L69.6919 255.213C69.4653 254.918 69.3545 254.551 69.3804 254.18C69.4064 253.809 69.5673 253.461 69.8326 253.201C207.359 123.19 387.28 51.594 576.5 51.594C765.721 51.594 945.641 123.19 1083.18 253.17C1083.45 253.427 1083.61 253.774 1083.64 254.146C1083.67 254.517 1083.57 254.887 1083.34 255.183L874.847 529.663C874.714 529.84 874.543 529.987 874.346 530.091C874.15 530.195 873.933 530.255 873.711 530.266L873.641 530.246Z" fill="white"/>
</g>
</g>
<g id="Cash">
<path id="Vector_21" d="M319.562 920.329C307.973 920.34 296.498 918.05 285.799 913.593C275.1 909.135 265.391 902.599 257.233 894.361C238.333 875.436 227.023 847.637 224.51 813.972C224.411 812.638 224.846 811.319 225.719 810.306C226.592 809.293 227.831 808.668 229.164 808.569C230.498 808.47 231.815 808.906 232.828 809.779C233.84 810.653 234.464 811.893 234.563 813.228C236.885 844.417 247.19 870.053 264.36 887.248C271.595 894.557 280.208 900.355 289.7 904.307C299.192 908.259 309.373 910.285 319.653 910.268C335.607 910.268 350.757 905.106 362.308 895.719C371.598 888.248 378.158 877.912 380.967 866.32C371.778 869.419 363.052 871.351 353.24 871.351C329.857 871.351 310.183 860.606 296.37 840.272C283.301 821.015 276.354 794.463 276.354 763.485C276.354 747.97 276.354 700.783 313.319 700.783C336.301 700.783 353.854 718.36 371.758 745.837L378.353 688.318C370.863 686.104 356.236 684.092 341.79 684.092C310.876 684.092 284.296 694.837 264.903 715.181C246.707 734.297 235.749 761.231 234.201 791.093C234.129 792.427 233.53 793.678 232.537 794.57C231.543 795.463 230.236 795.924 228.903 795.852C227.57 795.78 226.32 795.181 225.428 794.186C224.536 793.192 224.076 791.884 224.148 790.549C225.877 758.354 237.76 729.065 257.625 708.229C278.958 685.852 308.051 674.021 341.78 674.021C359.262 674.021 378.252 676.767 385.933 680.409C386.882 680.859 387.667 681.594 388.177 682.513C388.688 683.431 388.898 684.486 388.778 685.531L380.102 761.271C379.981 762.314 379.537 763.292 378.832 764.07C378.127 764.847 377.197 765.384 376.172 765.606C375.147 765.828 374.078 765.723 373.115 765.307C372.152 764.89 371.344 764.183 370.803 763.284C351.853 731.792 334.833 710.824 313.309 710.824C301.758 710.824 286.397 716.278 286.397 763.465C286.397 822.876 312.636 861.27 353.23 861.27C364.289 861.27 374.121 858.352 385.4 853.965C386.195 853.657 387.055 853.556 387.9 853.672C388.745 853.788 389.546 854.117 390.228 854.628C390.911 855.139 391.453 855.815 391.802 856.594C392.152 857.372 392.298 858.226 392.226 859.076C391.504 867.709 389.028 876.104 384.95 883.745C380.872 891.387 375.278 898.115 368.511 903.517C355.221 914.363 337.819 920.329 319.562 920.329Z" fill="#2EFF82"/>
<path id="Vector_22" d="M581.175 914.775H491.954C491.02 914.775 490.105 914.515 489.311 914.024C488.517 913.533 487.875 912.83 487.458 911.995C487.04 911.159 486.863 910.223 486.947 909.293C487.031 908.363 487.372 907.474 487.932 906.727C490.355 903.567 491.742 896.585 491.742 887.61C491.643 877.945 490.411 868.324 488.073 858.946L483.82 841.912H447.73L442.864 859.097C440.892 866.706 439.906 874.537 439.929 882.398C439.929 894.673 442.221 903.819 444.342 907.119C444.832 907.879 445.108 908.758 445.141 909.662C445.174 910.566 444.963 911.462 444.529 912.256C444.096 913.05 443.457 913.713 442.679 914.174C441.901 914.635 441.014 914.878 440.109 914.876H390.236C389.272 914.875 388.329 914.597 387.518 914.075C386.708 913.553 386.064 912.808 385.665 911.93C385.266 911.052 385.127 910.078 385.265 909.123C385.404 908.168 385.814 907.273 386.446 906.545C395.946 895.589 404.129 879.028 412.192 854.428L469.495 679.363C469.824 678.353 470.464 677.473 471.324 676.849C472.184 676.226 473.218 675.891 474.28 675.892H499.272C500.333 675.894 501.367 676.231 502.225 676.856C503.083 677.482 503.721 678.363 504.047 679.373L539.133 787.28C539.372 787.916 539.479 788.594 539.449 789.273C539.419 789.952 539.251 790.618 538.957 791.23C538.663 791.843 538.247 792.389 537.736 792.837C537.225 793.284 536.628 793.623 535.982 793.833C535.336 794.043 534.655 794.12 533.978 794.06C533.302 793.999 532.645 793.802 532.047 793.48C531.449 793.158 530.922 792.718 530.498 792.187C530.075 791.655 529.763 791.044 529.582 790.389L495.573 685.812H477.889L421.742 857.457C415.037 877.931 408.13 893.265 400.39 904.744H432.66C430.743 897.43 429.82 889.89 429.916 882.328C429.877 873.555 430.989 864.814 433.223 856.33L439.134 835.443C439.432 834.389 440.065 833.461 440.938 832.8C441.811 832.139 442.875 831.781 443.97 831.781H487.781C488.904 831.779 489.996 832.153 490.881 832.844C491.767 833.535 492.395 834.503 492.667 835.594L497.875 856.441C500.42 866.614 501.75 877.053 501.836 887.54C501.967 893.34 501.291 899.131 499.825 904.744H571.524C562.597 890.478 556.505 873.102 551.418 857.457L536.79 812.443C536.578 811.812 536.493 811.146 536.54 810.483C536.586 809.819 536.764 809.171 537.063 808.577C537.361 807.983 537.775 807.453 538.279 807.02C538.783 806.587 539.368 806.258 540.001 806.052C540.633 805.846 541.299 805.768 541.962 805.822C542.624 805.876 543.27 806.061 543.86 806.367C544.451 806.672 544.975 807.091 545.403 807.601C545.83 808.11 546.152 808.699 546.351 809.334L560.918 854.338C566.759 872.237 573.987 892.57 585.045 906.656C585.631 907.397 585.996 908.289 586.098 909.228C586.201 910.167 586.037 911.116 585.626 911.967C585.215 912.817 584.573 913.534 583.773 914.036C582.973 914.538 582.049 914.805 581.105 914.806L581.175 914.775ZM483.308 818.671H453.561C452.227 818.671 450.949 818.141 450.006 817.197C449.064 816.254 448.534 814.974 448.534 813.64C448.534 812.306 449.064 811.026 450.006 810.083C450.949 809.14 452.227 808.61 453.561 808.61H476.854L468.882 777.007L463.473 796.607C463.316 797.264 463.029 797.884 462.628 798.428C462.227 798.972 461.72 799.429 461.138 799.773C460.557 800.117 459.912 800.34 459.242 800.428C458.572 800.517 457.891 800.469 457.24 800.289C456.589 800.108 455.981 799.798 455.453 799.377C454.924 798.956 454.486 798.432 454.164 797.838C453.842 797.243 453.643 796.59 453.579 795.917C453.515 795.244 453.588 794.565 453.792 793.92L464.257 755.979C464.55 754.918 465.182 753.982 466.057 753.315C466.933 752.648 468.003 752.287 469.103 752.287H469.163C470.271 752.299 471.344 752.678 472.215 753.364C473.086 754.05 473.706 755.005 473.979 756.08L488.184 812.423C488.37 813.165 488.385 813.94 488.227 814.689C488.069 815.437 487.743 816.14 487.273 816.744C486.803 817.347 486.201 817.835 485.514 818.171C484.827 818.507 484.072 818.681 483.308 818.681V818.671Z" fill="#2EFF82"/>
<path id="Vector_23" d="M655.357 920.329C654.024 920.329 652.745 919.799 651.803 918.856C650.86 917.912 650.33 916.633 650.33 915.298C650.33 913.964 650.86 912.685 651.803 911.741C652.745 910.798 654.024 910.268 655.357 910.268C694.001 910.268 724.271 879.36 724.271 839.91C724.271 812.915 707.181 798.085 690.442 787.139L677.615 778.888C676.502 778.163 675.722 777.026 675.445 775.726C675.167 774.427 675.414 773.07 676.133 771.953C676.851 770.835 677.982 770.048 679.279 769.762C680.575 769.476 681.932 769.715 683.053 770.427L695.911 778.677C713.816 790.388 734.324 807.915 734.324 839.89C734.49 861.235 726.197 881.777 711.262 897.017C703.969 904.439 695.266 910.325 685.664 914.329C676.063 918.332 665.758 920.373 655.357 920.329ZM622.875 913.155C622.15 913.155 621.433 912.997 620.774 912.692C605.855 905.78 586.02 891.121 576.269 860.545C575.933 859.501 575.948 858.375 576.311 857.34C576.674 856.304 577.365 855.416 578.28 854.81L621.327 826.639C621.945 826.235 622.644 825.972 623.374 825.869C624.105 825.765 624.849 825.824 625.554 826.041C626.26 826.258 626.909 826.628 627.455 827.124C628.001 827.621 628.432 828.231 628.716 828.913C631.802 836.298 634.939 842.998 638.025 848.774C638.336 849.357 638.529 849.996 638.593 850.654C638.658 851.312 638.592 851.976 638.399 852.609C638.207 853.241 637.892 853.829 637.473 854.34C637.053 854.851 636.537 855.274 635.954 855.585C635.372 855.896 634.733 856.089 634.076 856.154C633.418 856.218 632.754 856.152 632.122 855.959C631.49 855.767 630.903 855.452 630.392 855.032C629.882 854.612 629.459 854.096 629.148 853.512C626.716 848.935 624.263 843.854 621.82 838.34L587.056 861.089C596.033 885.738 612.48 897.772 624.976 903.557C626.018 904.038 626.864 904.861 627.374 905.89C627.883 906.918 628.026 908.09 627.778 909.211C627.531 910.332 626.907 911.335 626.012 912.052C625.116 912.77 624.002 913.159 622.855 913.155H622.875ZM675.152 892.188C669.856 892.182 664.634 890.953 659.891 888.596C658.691 888.009 657.773 886.969 657.34 885.705C656.906 884.44 656.992 883.056 657.579 881.855C658.165 880.654 659.204 879.736 660.468 879.302C661.731 878.868 663.114 878.954 664.314 879.541C667.677 881.23 671.389 882.109 675.152 882.106C676.643 882.138 678.125 881.867 679.509 881.311C680.893 880.754 682.15 879.923 683.205 878.867C684.259 877.812 685.09 876.554 685.646 875.169C686.202 873.783 686.473 872.3 686.441 870.808C686.441 860.998 683.234 853.19 666.848 842.324C665.736 841.588 664.962 840.44 664.696 839.132C664.43 837.824 664.694 836.465 665.43 835.352C666.166 834.239 667.313 833.465 668.62 833.199C669.927 832.933 671.285 833.197 672.397 833.933C689.739 845.443 696.525 855.776 696.525 870.808C696.484 884.199 685.627 892.188 675.141 892.188H675.152ZM636.477 822.765C635.551 822.764 634.643 822.506 633.853 822.021L622.533 815.058C600.004 801.134 580.562 789.121 580.562 753.102C580.562 734.569 588.202 716.72 602.065 702.846C616.481 688.438 636.356 679.222 659.549 676.194C660.214 676.085 660.894 676.11 661.548 676.27C662.203 676.429 662.819 676.718 663.359 677.12C663.9 677.522 664.355 678.029 664.696 678.61C665.037 679.191 665.258 679.835 665.345 680.504C665.433 681.172 665.386 681.851 665.206 682.501C665.026 683.151 664.717 683.758 664.299 684.286C663.88 684.814 663.359 685.252 662.768 685.575C662.177 685.897 661.526 686.098 660.856 686.164C619.497 691.567 590.615 719.095 590.615 753.102C590.615 782.098 604.046 791.817 627.811 806.496L639.131 813.449C640.065 814.023 640.785 814.887 641.183 815.908C641.581 816.93 641.634 818.054 641.335 819.109C641.035 820.164 640.4 821.092 639.525 821.752C638.65 822.412 637.583 822.768 636.487 822.765H636.477ZM712.298 775.156C711.355 775.157 710.43 774.892 709.63 774.392C708.83 773.892 708.187 773.177 707.774 772.328C700.965 758.578 692.156 745.914 681.636 734.75C680.712 733.788 680.208 732.498 680.234 731.164C680.261 729.83 680.815 728.561 681.777 727.637C682.738 726.712 684.027 726.207 685.359 726.234C686.692 726.26 687.96 726.815 688.884 727.777C696.563 735.876 703.385 744.747 709.242 754.248L717.445 690.128C709.322 688.649 700.425 687.11 691.991 686.174C690.702 685.982 689.537 685.297 688.744 684.262C687.95 683.228 687.589 681.926 687.736 680.63C687.883 679.334 688.528 678.146 689.533 677.316C690.539 676.487 691.827 676.081 693.127 676.184C703.532 677.361 714.499 679.343 723.959 681.103C725.213 681.349 726.327 682.062 727.074 683.099C727.821 684.137 728.145 685.42 727.981 686.687L717.224 770.759C717.087 771.834 716.606 772.835 715.855 773.615C715.103 774.394 714.12 774.91 713.052 775.085C712.798 775.113 712.543 775.12 712.288 775.105L712.298 775.156ZM648.702 759.43C647.614 759.43 646.556 759.077 645.686 758.424C628.073 745.344 621.558 735.575 621.558 722.204C621.558 711.609 630.606 703.62 642.549 703.62C647.391 703.658 652.193 704.509 656.754 706.136C657.4 706.335 657.998 706.661 658.515 707.097C659.031 707.532 659.454 708.068 659.76 708.67C660.065 709.273 660.245 709.931 660.291 710.606C660.336 711.28 660.245 711.956 660.024 712.595C659.802 713.233 659.454 713.82 659.001 714.321C658.547 714.822 657.998 715.226 657.385 715.51C656.772 715.793 656.108 715.951 655.434 715.972C654.759 715.993 654.086 715.878 653.457 715.634C649.955 714.379 646.268 713.719 642.549 713.682C636.115 713.682 631.611 717.183 631.611 722.204C631.611 730.635 634.899 737.949 651.718 750.375C652.562 751.008 653.185 751.892 653.5 752.899C653.814 753.907 653.804 754.989 653.47 755.99C653.137 756.992 652.497 757.863 651.641 758.48C650.785 759.098 649.757 759.43 648.702 759.43Z" fill="#2EFF82"/>
<path id="Vector_24" d="M745.433 914.776C744.639 914.776 743.855 914.587 743.148 914.225C742.44 913.864 741.828 913.339 741.362 912.695C740.896 912.051 740.589 911.306 740.467 910.52C740.345 909.734 740.41 908.931 740.658 908.175C746.84 889.037 750.034 869.059 750.128 848.945V744.369C750.128 722.969 746.871 702.655 740.708 685.621C740.434 684.862 740.346 684.047 740.453 683.247C740.559 682.446 740.857 681.683 741.32 681.022C741.784 680.361 742.399 679.821 743.115 679.448C743.831 679.076 744.626 678.881 745.433 678.88H819.022C819.823 678.88 820.613 679.071 821.325 679.438C822.037 679.805 822.652 680.337 823.117 680.989C823.582 681.642 823.885 682.397 824 683.19C824.115 683.984 824.038 684.793 823.777 685.551C816.981 705.271 816.418 726.249 816.418 744.369V769.622H852.187V744.369C852.187 726.259 851.614 705.271 844.829 685.551C844.568 684.794 844.491 683.985 844.605 683.193C844.72 682.4 845.021 681.646 845.486 680.993C845.95 680.341 846.563 679.809 847.274 679.441C847.985 679.074 848.773 678.881 849.574 678.88H922.831C923.631 678.881 924.419 679.074 925.13 679.441C925.842 679.809 926.455 680.341 926.919 680.993C927.383 681.646 927.685 682.4 927.799 683.193C927.913 683.985 927.837 684.794 927.576 685.551C920.056 707.374 918.528 729.579 918.528 744.369V848.945C918.528 872.589 921.484 891.896 927.576 907.954C927.866 908.716 927.966 909.536 927.869 910.345C927.772 911.154 927.48 911.927 927.018 912.599C926.556 913.27 925.939 913.818 925.218 914.198C924.497 914.577 923.695 914.775 922.881 914.776H849.976C849.181 914.776 848.398 914.587 847.69 914.225C846.983 913.864 846.371 913.339 845.905 912.695C845.439 912.051 845.132 911.306 845.01 910.52C844.887 909.734 844.953 908.931 845.2 908.175C851.383 889.27 852.238 868.534 852.238 848.945V804.293H816.469V848.945C816.469 867.277 817.082 888.466 824.511 907.954C824.801 908.716 824.902 909.536 824.804 910.345C824.707 911.154 824.415 911.927 823.953 912.599C823.492 913.27 822.874 913.818 822.153 914.198C821.432 914.577 820.631 914.775 819.816 914.776H769.138C767.805 914.776 766.527 914.246 765.584 913.302C764.641 912.359 764.112 911.079 764.112 909.745C764.112 908.411 764.641 907.131 765.584 906.188C766.527 905.244 767.805 904.714 769.138 904.714H812.699C806.898 885.709 806.365 866.11 806.365 848.945V799.263C806.365 797.929 806.895 796.649 807.837 795.706C808.78 794.762 810.059 794.232 811.392 794.232H857.214C858.547 794.232 859.826 794.762 860.768 795.706C861.711 796.649 862.24 797.929 862.24 799.263V848.945C862.24 867.166 861.517 886.403 856.651 904.714H915.794C910.857 888.959 908.445 870.627 908.445 848.945V744.369C908.445 730.283 909.812 709.839 915.964 688.942H856.42C861.446 707.162 862.261 726.269 862.261 744.369V774.653C862.261 775.987 861.731 777.267 860.788 778.21C859.846 779.154 858.567 779.684 857.234 779.684H811.412C810.079 779.684 808.8 779.154 807.858 778.21C806.915 777.267 806.385 775.987 806.385 774.653V744.369C806.385 726.259 807.139 707.142 812.226 688.942H752.41C757.497 705.553 760.181 724.558 760.181 744.369V848.945C760.084 870.128 756.72 891.169 750.208 911.325C749.876 912.329 749.236 913.204 748.379 913.823C747.521 914.443 746.491 914.776 745.433 914.776Z" fill="#2EFF82"/>
<path id="Vector_25" d="M635.04 944.607C634.76 944.603 634.481 944.579 634.205 944.536C633.553 944.428 632.929 944.192 632.369 943.841C631.809 943.491 631.323 943.034 630.939 942.496C630.555 941.958 630.281 941.349 630.133 940.705C629.984 940.06 629.964 939.393 630.073 938.741L678.328 651.171C678.437 650.519 678.673 649.895 679.023 649.334C679.373 648.774 679.83 648.288 680.368 647.904C680.906 647.52 681.514 647.245 682.157 647.097C682.801 646.948 683.467 646.927 684.119 647.036C684.77 647.145 685.394 647.382 685.954 647.732C686.515 648.082 687 648.539 687.384 649.077C687.768 649.616 688.042 650.224 688.19 650.868C688.339 651.512 688.36 652.179 688.251 652.831L639.996 940.401C639.801 941.576 639.195 942.643 638.288 943.413C637.38 944.183 636.229 944.606 635.04 944.607Z" fill="#2EFF82"/>
<g id="Cash Glow">
<path id="Vector_26" d="M581.678 910.751H492.456C492.174 910.752 491.896 910.673 491.656 910.524C491.416 910.375 491.222 910.161 491.098 909.907C490.973 909.653 490.922 909.37 490.951 909.088C490.979 908.807 491.086 908.539 491.26 908.316C494.195 904.503 495.804 896.937 495.804 887.006C495.705 877.053 494.44 867.145 492.034 857.487L487.108 837.787H445.619L440.029 857.537C437.962 865.456 436.928 873.61 436.953 881.794C436.953 893.093 438.963 903.798 441.929 908.426C442.073 908.656 442.153 908.919 442.162 909.189C442.171 909.46 442.108 909.728 441.979 909.966C441.849 910.204 441.657 910.403 441.424 910.541C441.19 910.679 440.924 910.751 440.652 910.751H390.738C390.45 910.747 390.169 910.661 389.927 910.503C389.686 910.346 389.494 910.122 389.375 909.859C389.256 909.596 389.214 909.305 389.254 909.019C389.294 908.733 389.415 908.465 389.603 908.245C399.424 896.926 407.829 879.983 416.032 854.921L473.335 679.856C473.44 679.559 473.635 679.302 473.893 679.122C474.15 678.942 474.458 678.846 474.773 678.85H499.765C500.079 678.846 500.387 678.942 500.645 679.122C500.903 679.302 501.097 679.559 501.202 679.856L536.288 787.722C536.412 788.104 536.379 788.519 536.197 788.876C536.015 789.234 535.699 789.505 535.318 789.629C534.936 789.753 534.521 789.72 534.164 789.538C533.807 789.356 533.537 789.039 533.413 788.658L498.649 681.788H475.838L418.907 855.847C411.136 879.541 403.164 896.152 393.956 907.722H438.189C435.596 901.967 433.977 892.218 433.977 881.784C433.956 873.328 435.024 864.905 437.154 856.722L443.065 835.855C443.155 835.54 443.344 835.262 443.605 835.064C443.867 834.866 444.185 834.759 444.513 834.758H488.324C488.661 834.759 488.989 834.872 489.255 835.08C489.52 835.288 489.709 835.578 489.792 835.905L495 856.752C497.462 866.648 498.758 876.798 498.86 886.996C498.86 893.496 498.186 901.957 495.211 907.722H578.652C567.915 893.003 560.968 873.313 555.268 855.847L540.611 810.853C540.552 810.662 540.531 810.461 540.549 810.262C540.568 810.063 540.626 809.87 540.719 809.693C540.812 809.517 540.94 809.36 541.094 809.233C541.248 809.105 541.425 809.01 541.616 808.951C541.807 808.889 542.008 808.866 542.208 808.884C542.407 808.901 542.601 808.958 542.779 809.052C542.956 809.146 543.112 809.274 543.239 809.43C543.366 809.585 543.46 809.765 543.516 809.957L558.153 854.961C564.095 873.162 571.403 893.797 582.894 908.346C583.071 908.567 583.182 908.833 583.214 909.115C583.246 909.396 583.198 909.681 583.075 909.936C582.943 910.19 582.742 910.402 582.495 910.546C582.247 910.691 581.964 910.762 581.678 910.751ZM483.81 814.646H454.063C453.663 814.646 453.28 814.487 452.997 814.204C452.714 813.921 452.555 813.537 452.555 813.137C452.555 812.736 452.714 812.353 452.997 812.07C453.28 811.786 453.663 811.628 454.063 811.628H481.88L469.545 762.72L460.588 795.157C460.544 795.357 460.46 795.546 460.341 795.713C460.222 795.879 460.07 796.02 459.895 796.126C459.72 796.232 459.526 796.301 459.323 796.329C459.12 796.358 458.914 796.345 458.717 796.291C458.52 796.237 458.335 796.143 458.175 796.015C458.015 795.888 457.883 795.729 457.786 795.549C457.689 795.368 457.63 795.17 457.612 794.966C457.594 794.762 457.618 794.557 457.682 794.362L468.158 756.412C468.243 756.09 468.432 755.805 468.696 755.602C468.959 755.399 469.283 755.289 469.615 755.289C469.948 755.289 470.271 755.399 470.535 755.602C470.799 755.805 470.988 756.09 471.073 756.412L485.278 812.754C485.334 812.978 485.338 813.211 485.289 813.436C485.24 813.661 485.14 813.872 484.997 814.052C484.858 814.236 484.679 814.386 484.473 814.489C484.267 814.592 484.041 814.645 483.81 814.646Z" fill="white"/>
<path id="Vector_27" d="M655.86 916.305C655.46 916.305 655.076 916.146 654.794 915.863C654.511 915.58 654.352 915.196 654.352 914.795C654.352 914.395 654.511 914.011 654.794 913.728C655.076 913.445 655.46 913.286 655.86 913.286C696.475 913.286 728.242 880.839 728.242 839.407C728.242 810.561 709.312 794.483 692.825 783.688L680.048 775.427C679.881 775.32 679.736 775.182 679.623 775.019C679.51 774.856 679.429 774.672 679.387 774.478C679.345 774.285 679.341 774.084 679.375 773.889C679.41 773.693 679.483 773.507 679.59 773.34C679.697 773.173 679.836 773.028 679.999 772.915C680.161 772.801 680.345 772.721 680.539 772.679C680.732 772.636 680.932 772.632 681.128 772.667C681.323 772.702 681.509 772.775 681.676 772.882L694.544 781.152C711.635 792.371 731.339 809.122 731.339 839.407C731.502 859.826 723.575 879.477 709.292 894.059C702.32 901.149 694.001 906.77 684.824 910.59C675.647 914.411 665.799 916.354 655.86 916.305ZM623.388 909.131C623.17 909.129 622.954 909.081 622.755 908.99C608.469 902.38 589.489 888.334 580.13 858.976C580.026 858.662 580.031 858.322 580.142 858.01C580.253 857.699 580.464 857.433 580.743 857.255L623.79 829.084C623.976 828.965 624.185 828.889 624.404 828.859C624.622 828.83 624.844 828.849 625.054 828.914C625.265 828.979 625.459 829.089 625.622 829.236C625.786 829.384 625.915 829.565 626.002 829.768C629.139 837.254 632.315 844.035 635.452 849.891C635.545 850.066 635.603 850.257 635.622 850.455C635.641 850.652 635.621 850.851 635.563 851.041C635.505 851.231 635.41 851.407 635.285 851.56C635.159 851.713 635.004 851.84 634.829 851.933C634.654 852.026 634.462 852.084 634.265 852.103C634.068 852.122 633.869 852.102 633.679 852.044C633.49 851.986 633.313 851.891 633.161 851.765C633.008 851.639 632.881 851.484 632.788 851.309C629.842 845.775 626.867 839.477 623.921 832.565L583.357 859.086C592.495 886.654 610.5 899.915 624.022 906.193C624.333 906.338 624.585 906.585 624.737 906.892C624.889 907.2 624.932 907.551 624.858 907.886C624.784 908.221 624.598 908.521 624.331 908.737C624.064 908.952 623.731 909.07 623.388 909.071V909.131ZM675.665 888.163C670.906 888.156 666.214 887.051 661.952 884.934C661.765 884.853 661.595 884.734 661.455 884.586C661.314 884.438 661.205 884.262 661.135 884.071C661.064 883.879 661.033 883.675 661.043 883.471C661.054 883.267 661.106 883.067 661.196 882.883C661.286 882.7 661.412 882.536 661.567 882.403C661.722 882.27 661.902 882.17 662.097 882.108C662.292 882.047 662.497 882.026 662.7 882.046C662.903 882.067 663.1 882.128 663.279 882.227C667.124 884.151 671.365 885.15 675.665 885.145C682.842 885.145 690.473 879.953 690.473 870.325C690.473 857.658 684.732 849.146 669.301 838.904C669.136 838.794 668.994 838.653 668.884 838.488C668.773 838.324 668.696 838.139 668.657 837.945C668.617 837.75 668.617 837.55 668.655 837.356C668.693 837.161 668.769 836.976 668.879 836.811C668.988 836.646 669.129 836.504 669.294 836.393C669.458 836.283 669.643 836.205 669.837 836.166C670.031 836.127 670.231 836.126 670.425 836.165C670.62 836.203 670.805 836.279 670.97 836.388C687.386 847.285 693.489 856.511 693.489 870.325C693.513 872.676 693.068 875.008 692.179 877.185C691.291 879.361 689.977 881.338 688.315 883C686.653 884.661 684.676 885.974 682.5 886.861C680.324 887.747 677.994 888.19 675.644 888.163H675.665ZM637 818.741C636.72 818.741 636.445 818.665 636.206 818.52L624.886 811.557C599.884 796.063 584.543 784.955 584.543 752.548C584.543 715.161 615.768 684.967 660.474 679.101C660.874 679.051 661.278 679.161 661.596 679.408C661.915 679.655 662.123 680.019 662.173 680.419C662.224 680.82 662.114 681.224 661.867 681.543C661.62 681.861 661.256 682.069 660.856 682.12C617.698 687.754 587.559 716.72 587.559 752.548C587.559 783.416 601.633 793.598 626.414 808.941L637.734 815.894C638.014 816.065 638.231 816.324 638.351 816.63C638.472 816.936 638.489 817.273 638.4 817.589C638.311 817.906 638.121 818.185 637.86 818.384C637.598 818.582 637.278 818.69 636.95 818.691L637 818.741ZM712.791 771.131C712.508 771.133 712.23 771.055 711.99 770.905C711.75 770.756 711.557 770.541 711.434 770.286C704.466 756.205 695.451 743.236 684.682 731.802C684.405 731.512 684.254 731.125 684.262 730.724C684.271 730.323 684.438 729.942 684.727 729.664C685.017 729.386 685.404 729.235 685.805 729.244C686.206 729.252 686.586 729.42 686.864 729.709C696.739 740.153 705.166 751.879 711.916 764.571L721.869 686.768C712.821 685.098 702.597 683.277 692.906 682.17C692.708 682.148 692.516 682.088 692.341 681.992C692.167 681.896 692.013 681.766 691.888 681.611C691.636 681.296 691.52 680.895 691.564 680.495C691.608 680.095 691.809 679.728 692.123 679.476C692.436 679.224 692.837 679.108 693.237 679.152C703.532 680.329 714.429 682.291 723.829 684.041C724.207 684.11 724.544 684.322 724.771 684.633C724.997 684.944 725.096 685.33 725.046 685.712L714.289 769.793C714.246 770.116 714.1 770.416 713.874 770.649C713.648 770.883 713.353 771.038 713.032 771.091L712.791 771.131ZM649.195 755.406C648.873 755.403 648.561 755.301 648.3 755.114C631.521 742.698 625.57 733.985 625.57 721.68C625.57 712.947 632.919 706.589 643.042 706.589C647.497 706.623 651.915 707.405 656.111 708.903C656.49 709.036 656.8 709.315 656.973 709.677C657.147 710.039 657.169 710.456 657.036 710.834C656.903 711.213 656.624 711.524 656.263 711.697C655.901 711.871 655.484 711.894 655.106 711.76C651.233 710.374 647.155 709.646 643.042 709.607C634.668 709.607 628.586 714.638 628.586 721.68C628.586 732.828 634.215 740.938 650.089 752.679C650.346 752.867 650.537 753.132 650.634 753.435C650.731 753.738 650.73 754.065 650.631 754.367C650.532 754.67 650.339 754.933 650.081 755.12C649.823 755.306 649.513 755.406 649.195 755.406Z" fill="white"/>
<path id="Vector_28" d="M745.936 910.751C745.775 910.749 745.616 910.721 745.463 910.67C745.271 910.614 745.092 910.52 744.936 910.393C744.781 910.266 744.653 910.11 744.559 909.932C744.465 909.755 744.408 909.561 744.391 909.361C744.373 909.161 744.396 908.96 744.458 908.769C750.764 889.264 754.02 868.901 754.109 848.401V743.865C754.109 722.063 750.771 701.337 744.478 683.921C744.395 683.693 744.368 683.449 744.399 683.209C744.431 682.969 744.52 682.74 744.659 682.542C744.798 682.343 744.983 682.181 745.199 682.069C745.414 681.957 745.653 681.898 745.896 681.898H819.485C819.726 681.9 819.964 681.958 820.178 682.068C820.393 682.178 820.579 682.337 820.721 682.532C820.86 682.728 820.95 682.955 820.984 683.193C821.017 683.431 820.992 683.674 820.912 683.901C814.277 703.168 813.362 724.146 813.362 743.865V772.63H856.168V743.865C856.168 724.105 855.254 703.168 848.619 683.901C848.538 683.674 848.514 683.431 848.547 683.193C848.58 682.955 848.67 682.728 848.81 682.532C848.95 682.338 849.134 682.179 849.347 682.069C849.56 681.959 849.796 681.9 850.036 681.898H923.333C923.573 681.9 923.809 681.959 924.022 682.069C924.235 682.179 924.419 682.338 924.56 682.532C924.699 682.728 924.789 682.955 924.822 683.193C924.855 683.431 924.831 683.674 924.751 683.901C917.07 706.186 915.462 728.814 915.462 743.865V848.442C915.462 872.528 918.478 892.238 924.741 908.708C924.826 908.937 924.854 909.182 924.825 909.423C924.795 909.665 924.708 909.896 924.57 910.097C924.433 910.298 924.248 910.463 924.033 910.577C923.817 910.691 923.577 910.751 923.333 910.751H850.428C850.186 910.753 849.946 910.697 849.73 910.587C849.513 910.477 849.327 910.317 849.186 910.12C849.044 909.922 848.953 909.693 848.919 909.453C848.885 909.212 848.91 908.967 848.991 908.739C855.334 889.371 856.209 868.293 856.209 848.371V800.309H813.402V848.482C813.402 867.125 814.036 888.727 821.636 908.749C821.721 908.977 821.749 909.222 821.72 909.464C821.69 909.705 821.603 909.936 821.465 910.137C821.328 910.339 821.143 910.503 820.928 910.617C820.712 910.731 820.472 910.791 820.228 910.791H769.641C769.241 910.791 768.858 910.632 768.575 910.349C768.292 910.066 768.133 909.682 768.133 909.282C768.133 908.882 768.292 908.498 768.575 908.215C768.858 907.932 769.241 907.773 769.641 907.773H818.067C811.03 887.841 810.387 866.763 810.387 848.482V798.759C810.387 798.359 810.545 797.975 810.828 797.692C811.111 797.409 811.495 797.25 811.894 797.25H857.717C858.117 797.25 858.5 797.409 858.783 797.692C859.066 797.975 859.225 798.359 859.225 798.759V848.442C859.225 867.91 858.39 888.516 852.489 907.732H921.162C915.301 891.343 912.446 871.915 912.446 848.442V743.865C912.446 729.025 913.994 706.941 921.232 684.917H852.177C858.35 704.033 859.215 724.518 859.215 743.865V774.15C859.215 774.55 859.056 774.934 858.773 775.217C858.49 775.5 858.106 775.659 857.707 775.659H811.884C811.484 775.659 811.101 775.5 810.818 775.217C810.535 774.934 810.376 774.55 810.376 774.15V743.865C810.376 724.518 811.251 704.043 817.414 684.917H748.047C753.998 702.232 757.145 722.556 757.145 743.865V848.442C757.052 869.246 753.746 889.911 747.343 909.704C747.25 910.006 747.063 910.269 746.81 910.457C746.557 910.645 746.251 910.748 745.936 910.751Z" fill="white"/>
<path id="Vector_29" d="M635.542 940.583H635.291C635.095 940.55 634.908 940.479 634.741 940.373C634.573 940.268 634.427 940.13 634.312 939.969C634.197 939.807 634.115 939.625 634.071 939.431C634.027 939.238 634.021 939.038 634.054 938.842L682.309 651.272C682.342 651.077 682.413 650.89 682.519 650.722C682.624 650.553 682.761 650.408 682.923 650.293C683.084 650.178 683.267 650.096 683.46 650.052C683.653 650.007 683.853 650.002 684.049 650.035C684.244 650.067 684.431 650.137 684.598 650.241C684.766 650.345 684.912 650.482 685.027 650.643C685.142 650.803 685.224 650.985 685.268 651.178C685.312 651.371 685.318 651.57 685.285 651.765L637.03 939.335C636.971 939.686 636.788 940.004 636.515 940.233C636.243 940.461 635.898 940.585 635.542 940.583Z" fill="white"/>
<path id="Vector_30" d="M320.065 916.305C308.933 916.319 297.909 914.123 287.631 909.843C277.353 905.563 268.025 899.286 260.189 891.373C241.892 873.052 230.924 846.027 228.491 813.207C228.462 812.807 228.593 812.412 228.855 812.108C229.117 811.804 229.489 811.617 229.888 811.588C230.288 811.558 230.684 811.689 230.987 811.951C231.291 812.214 231.478 812.586 231.507 812.986C233.89 845.071 244.576 871.432 262.33 889.24C269.889 896.87 278.884 902.924 288.796 907.052C298.708 911.179 309.339 913.298 320.075 913.286C336.844 913.286 352.778 907.843 364.952 897.953C376.594 888.676 384.166 875.226 386.064 860.455C375.005 864.61 365.113 867.317 353.793 867.317C331.676 867.317 312.958 857.104 299.828 837.777C287.141 819.103 280.426 793.236 280.426 762.972C280.426 745.536 282.366 732.456 286.367 722.989C291.745 710.251 300.994 703.792 313.872 703.792C337.527 703.792 355.462 724.357 374.674 755.647L382.716 685.39C376.071 682.744 359.453 680.057 342.333 680.057C310.434 680.057 283.019 691.185 262.913 712.253C244.134 731.953 232.884 759.712 231.236 790.409C231.214 790.809 231.035 791.184 230.737 791.452C230.439 791.72 230.047 791.859 229.647 791.837C229.247 791.816 228.872 791.637 228.604 791.338C228.337 791.04 228.198 790.648 228.22 790.248C229.899 758.837 241.44 730.394 260.721 710.171C281.371 688.509 309.59 677.059 342.333 677.059C359.091 677.059 377.82 679.715 384.978 683.096C385.264 683.231 385.5 683.452 385.653 683.728C385.806 684.004 385.869 684.321 385.833 684.635L377.157 760.376C377.123 760.689 376.991 760.983 376.78 761.216C376.568 761.45 376.289 761.61 375.981 761.674C375.672 761.741 375.351 761.71 375.061 761.586C374.77 761.461 374.526 761.249 374.362 760.98C354.809 728.472 337.035 706.82 313.862 706.82C293.103 706.82 283.431 724.659 283.431 762.982C283.431 792.642 289.966 817.926 302.311 836.087C314.858 854.549 332.662 864.308 353.783 864.308C365.415 864.308 375.579 861.29 387.26 856.772C387.496 856.691 387.749 856.669 387.996 856.708C388.242 856.748 388.475 856.848 388.674 856.999C388.873 857.15 389.032 857.348 389.136 857.576C389.24 857.803 389.286 858.052 389.271 858.302C388.584 866.461 386.242 874.394 382.387 881.617C378.532 888.839 373.247 895.199 366.852 900.307C354.135 910.62 337.517 916.305 320.065 916.305Z" fill="white"/>
</g>
</g>
<g id="Cash Frame">
<path id="Cash Frame_2" d="M943.168 973.553H208.827C199.495 973.553 190.546 969.843 183.947 963.239C177.348 956.635 173.641 947.678 173.641 938.339V652.852C173.641 643.513 177.348 634.556 183.947 627.952C190.546 621.348 199.495 617.638 208.827 617.638H293.746C295.079 617.638 296.358 618.168 297.3 619.111C298.243 620.055 298.772 621.334 298.772 622.668C298.772 624.003 298.243 625.282 297.3 626.225C296.358 627.169 295.079 627.699 293.746 627.699H208.827C202.161 627.699 195.769 630.349 191.055 635.066C186.342 639.783 183.694 646.181 183.694 652.852V938.339C183.694 945.01 186.342 951.408 191.055 956.125C195.769 960.842 202.161 963.492 208.827 963.492H943.168C949.834 963.492 956.227 960.842 960.94 956.125C965.653 951.408 968.301 945.01 968.301 938.339V652.852C968.301 646.181 965.653 639.783 960.94 635.066C956.227 630.349 949.834 627.699 943.168 627.699H865.236C863.903 627.699 862.625 627.169 861.682 626.225C860.739 625.282 860.21 624.003 860.21 622.668C860.21 621.334 860.739 620.055 861.682 619.111C862.625 618.168 863.903 617.638 865.236 617.638H943.168C952.5 617.638 961.45 621.348 968.048 627.952C974.647 634.556 978.354 643.513 978.354 652.852V938.339C978.354 947.678 974.647 956.635 968.048 963.239C961.45 969.843 952.5 973.553 943.168 973.553Z" fill="#004FFF"/>
<g id="Cash Frame Glow">
<path id="Cash Frame Glow_2" d="M943.671 969.529H209.33C200.933 969.521 192.883 966.179 186.946 960.237C181.009 954.296 177.67 946.239 177.662 937.836V652.349C177.67 643.946 181.009 635.89 186.946 629.948C192.883 624.006 200.933 620.664 209.33 620.656H294.249C294.648 620.656 295.032 620.815 295.315 621.098C295.598 621.381 295.756 621.765 295.756 622.165C295.756 622.566 295.598 622.95 295.315 623.233C295.032 623.516 294.648 623.675 294.249 623.675H209.33C201.734 623.685 194.453 626.71 189.082 632.085C183.711 637.46 180.689 644.747 180.678 652.349V937.836C180.686 945.438 183.707 952.727 189.079 958.103C194.45 963.479 201.733 966.502 209.33 966.51H943.671C951.267 966.502 958.55 963.479 963.922 958.103C969.293 952.727 972.314 945.438 972.322 937.836V652.349C972.312 644.747 969.289 637.46 963.919 632.085C958.548 626.71 951.266 623.685 943.671 623.675H865.739C865.339 623.675 864.955 623.516 864.673 623.233C864.39 622.95 864.231 622.566 864.231 622.165C864.231 621.765 864.39 621.381 864.673 621.098C864.955 620.815 865.339 620.656 865.739 620.656H943.671C952.067 620.664 960.117 624.006 966.054 629.948C971.991 635.89 975.33 643.946 975.338 652.349V937.836C975.33 946.239 971.991 954.296 966.054 960.237C960.117 966.179 952.067 969.521 943.671 969.529Z" fill="white"/>
</g>
</g>
<g id="Four">
<path id="Four_2" d="M637.473 632.941H564.939C564.083 632.942 563.24 632.724 562.491 632.307C561.743 631.89 561.113 631.289 560.662 630.56C560.211 629.831 559.953 628.999 559.913 628.143C559.874 627.286 560.054 626.434 560.436 625.667C569.956 606.611 570.629 601.077 570.67 583.611H482.634C481.731 583.61 480.844 583.365 480.067 582.902C479.291 582.439 478.653 581.775 478.222 580.98C477.791 580.185 477.582 579.288 477.617 578.384C477.652 577.48 477.93 576.603 478.422 575.844L594.375 396.915C594.831 396.212 595.455 395.634 596.19 395.233C596.926 394.832 597.75 394.622 598.587 394.621H626.364C627.697 394.621 628.976 395.151 629.918 396.094C630.861 397.038 631.391 398.318 631.391 399.652V512.206C631.391 513.541 630.861 514.82 629.918 515.764C628.976 516.707 627.697 517.237 626.364 517.237C625.031 517.237 623.752 516.707 622.81 515.764C621.867 514.82 621.337 513.541 621.337 512.206V404.682H601.322L491.893 573.55H575.676C577.009 573.55 578.288 574.08 579.23 575.023C580.173 575.967 580.703 577.246 580.703 578.58V581.709C580.703 600.272 579.959 607.597 572.922 622.88H629.34C622.102 607.657 621.297 600.302 621.297 581.709V578.58C621.297 577.246 621.827 575.967 622.77 575.023C623.712 574.08 624.991 573.55 626.324 573.55H641.202L650.803 537.541C643.143 538.245 634.869 538.547 626.806 538.778H626.485C625.825 538.799 625.167 538.69 624.549 538.457C623.931 538.223 623.365 537.871 622.883 537.419C622.402 536.966 622.014 536.424 621.741 535.821C621.469 535.219 621.318 534.569 621.297 533.908C621.276 533.248 621.385 532.59 621.618 531.971C621.851 531.353 622.204 530.786 622.656 530.304C623.108 529.822 623.65 529.434 624.252 529.161C624.853 528.889 625.503 528.738 626.163 528.717H626.485C636.98 528.385 647.838 528.033 656.825 526.705C657.65 526.581 658.493 526.665 659.278 526.948C660.062 527.232 660.764 527.707 661.32 528.33C661.875 528.953 662.267 529.704 662.46 530.517C662.653 531.329 662.641 532.176 662.425 532.983L649.969 579.868C649.685 580.942 649.053 581.892 648.173 582.569C647.293 583.246 646.213 583.612 645.103 583.611H631.391C631.391 601.077 632.125 606.611 641.936 625.596C642.333 626.363 642.526 627.219 642.497 628.083C642.467 628.946 642.216 629.787 641.768 630.525C641.319 631.262 640.689 631.872 639.936 632.296C639.184 632.719 638.336 632.941 637.473 632.941ZM534.931 543.658C533.598 543.672 532.313 543.157 531.36 542.224C530.407 541.29 529.864 540.017 529.849 538.683C529.834 537.348 530.35 536.063 531.282 535.109C532.214 534.155 533.487 533.611 534.82 533.597L571.715 532.772V491.521L550.191 524.431C549.83 524.984 549.363 525.46 548.817 525.832C548.271 526.205 547.658 526.466 547.011 526.601C546.365 526.736 545.698 526.742 545.049 526.619C544.4 526.496 543.782 526.247 543.23 525.885C542.677 525.523 542.201 525.055 541.829 524.509C541.457 523.963 541.196 523.349 541.061 522.702C540.927 522.055 540.92 521.388 541.043 520.739C541.166 520.089 541.415 519.47 541.777 518.917L572.509 471.861C573.101 470.951 573.971 470.258 574.989 469.884C576.007 469.51 577.119 469.475 578.158 469.785C579.197 470.095 580.108 470.733 580.755 471.604C581.402 472.475 581.751 473.532 581.748 474.618V537.681C581.749 538.997 581.234 540.26 580.315 541.2C579.396 542.14 578.146 542.683 576.832 542.712L535.021 543.648L534.931 543.658Z" fill="#FFB32C"/>
<path id="Four Glow" d="M637.975 628.917H565.442C565.184 628.918 564.931 628.853 564.705 628.729C564.479 628.604 564.29 628.424 564.153 628.205C564.017 627.986 563.94 627.736 563.928 627.478C563.915 627.221 563.97 626.964 564.085 626.733C573.846 607.215 574.691 601.53 574.691 581.206V579.587H483.207C482.936 579.586 482.67 579.511 482.438 579.372C482.205 579.232 482.014 579.032 481.886 578.793C481.757 578.554 481.695 578.285 481.707 578.014C481.718 577.743 481.802 577.48 481.951 577.252L597.823 398.324C597.962 398.114 598.15 397.942 598.371 397.823C598.592 397.704 598.839 397.641 599.09 397.64H626.867C627.266 397.64 627.65 397.799 627.933 398.082C628.216 398.365 628.374 398.749 628.374 399.149V511.704C628.374 512.104 628.216 512.488 627.933 512.771C627.65 513.054 627.266 513.213 626.867 513.213C626.467 513.213 626.083 513.054 625.8 512.771C625.517 512.488 625.359 512.104 625.359 511.704V400.658H599.914L485.922 576.568H576.179C576.579 576.568 576.962 576.727 577.245 577.01C577.528 577.293 577.687 577.677 577.687 578.077V581.206C577.687 601.329 576.872 607.517 567.845 625.898H635.502C626.193 607.567 625.359 601.379 625.359 581.206V578.077C625.359 577.677 625.517 577.293 625.8 577.01C626.083 576.727 626.467 576.568 626.867 576.568H644.449L656.071 532.973C647.214 534.11 637.07 534.432 627.238 534.754H626.907C626.507 534.766 626.118 534.618 625.827 534.344C625.536 534.069 625.365 533.69 625.353 533.29C625.341 532.89 625.489 532.501 625.763 532.21C626.038 531.918 626.416 531.747 626.816 531.735H627.138C637.734 531.393 648.692 531.041 657.891 529.723C658.137 529.69 658.389 529.719 658.622 529.806C658.856 529.893 659.064 530.037 659.229 530.224C659.394 530.411 659.51 530.635 659.568 530.878C659.625 531.12 659.623 531.374 659.559 531.615L647.063 578.46C646.979 578.782 646.79 579.068 646.526 579.272C646.263 579.476 645.939 579.586 645.606 579.587H628.374V581.206C628.374 601.56 629.249 607.245 639.312 626.713C639.431 626.944 639.488 627.201 639.479 627.459C639.47 627.718 639.396 627.971 639.262 628.192C639.128 628.414 638.94 628.597 638.714 628.724C638.489 628.851 638.234 628.918 637.975 628.917ZM535.433 539.633C535.033 539.633 534.65 539.475 534.367 539.191C534.084 538.908 533.925 538.525 533.925 538.124C533.925 537.724 534.084 537.34 534.367 537.057C534.65 536.774 535.033 536.615 535.433 536.615L575.766 535.71V479.176L547.748 521.996C547.644 522.169 547.505 522.32 547.341 522.438C547.177 522.556 546.99 522.641 546.793 522.686C546.596 522.73 546.392 522.735 546.192 522.699C545.993 522.664 545.803 522.588 545.634 522.477C545.465 522.367 545.319 522.223 545.207 522.055C545.094 521.887 545.016 521.697 544.978 521.499C544.94 521.3 544.942 521.095 544.984 520.897C545.027 520.699 545.109 520.512 545.225 520.346L575.957 473.32C576.134 473.046 576.395 472.837 576.701 472.723C577.007 472.61 577.341 472.599 577.654 472.692C577.966 472.785 578.24 472.977 578.435 473.239C578.629 473.501 578.733 473.819 578.732 474.145V537.209C578.735 537.605 578.581 537.986 578.304 538.268C578.027 538.551 577.65 538.713 577.254 538.718L535.453 539.654L535.433 539.633Z" fill="white"/>
</g>
<g id="Bling">
<path id="Vector_31" d="M818.137 538.305H682.269C680.936 538.305 679.658 537.775 678.715 536.832C677.772 535.888 677.243 534.609 677.243 533.275C677.243 531.941 677.772 530.661 678.715 529.718C679.658 528.774 680.936 528.244 682.269 528.244H818.137C819.47 528.244 820.749 528.774 821.692 529.718C822.634 530.661 823.164 531.941 823.164 533.275C823.164 534.609 822.634 535.888 821.692 536.832C820.749 537.775 819.47 538.305 818.137 538.305Z" fill="#004FFF"/>
<path id="Vector_32" d="M790.642 577.212C790.349 577.213 790.057 577.19 789.768 577.141L724.784 565.662C723.514 565.386 722.399 564.629 721.675 563.549C720.951 562.469 720.672 561.15 720.899 559.869C721.125 558.588 721.838 557.445 722.889 556.679C723.94 555.913 725.246 555.584 726.533 555.761L791.547 567.231C792.78 567.454 793.885 568.13 794.645 569.126C795.406 570.122 795.768 571.367 795.66 572.616C795.551 573.865 794.981 575.028 794.06 575.879C793.14 576.729 791.935 577.204 790.682 577.212H790.642Z" fill="#004FFF"/>
<path id="Vector_33" d="M752.199 643.515C751.317 643.515 750.45 643.283 749.686 642.841L679.756 602.425C679.18 602.097 678.674 601.659 678.268 601.134C677.862 600.61 677.563 600.01 677.389 599.37C677.216 598.73 677.17 598.062 677.256 597.404C677.341 596.746 677.556 596.111 677.887 595.537C678.219 594.962 678.661 594.459 679.187 594.056C679.714 593.653 680.315 593.358 680.956 593.189C681.597 593.019 682.265 592.978 682.921 593.068C683.578 593.158 684.211 593.377 684.783 593.712L754.712 634.128C755.67 634.682 756.419 635.537 756.843 636.56C757.266 637.583 757.34 638.717 757.054 639.787C756.768 640.856 756.137 641.802 755.259 642.476C754.381 643.15 753.305 643.515 752.199 643.515Z" fill="#004FFF"/>
<path id="Vector_34" d="M685.446 635.144C684.262 635.146 683.116 634.729 682.209 633.967L659.087 614.559C658.115 613.688 657.519 612.473 657.426 611.171C657.333 609.869 657.75 608.581 658.588 607.58C659.426 606.58 660.62 605.944 661.917 605.809C663.214 605.673 664.514 606.047 665.541 606.852L688.663 626.26C689.453 626.924 690.02 627.814 690.287 628.811C690.554 629.808 690.508 630.863 690.156 631.833C689.803 632.802 689.162 633.64 688.317 634.233C687.473 634.825 686.467 635.144 685.436 635.144H685.446Z" fill="#004FFF"/>
<path id="Vector_35" d="M803.198 623.202C802.612 623.199 802.03 623.093 801.479 622.89L675.252 576.91C674.61 576.702 674.015 576.366 673.505 575.923C672.995 575.48 672.58 574.939 672.283 574.331C671.987 573.724 671.816 573.063 671.78 572.388C671.745 571.713 671.846 571.037 672.077 570.402C672.308 569.767 672.665 569.185 673.126 568.691C673.587 568.197 674.142 567.801 674.76 567.526C675.377 567.252 676.043 567.105 676.719 567.094C677.394 567.083 678.065 567.208 678.69 567.463L804.917 613.442C806.029 613.846 806.963 614.629 807.555 615.654C808.146 616.678 808.358 617.879 808.153 619.044C807.948 620.21 807.338 621.266 806.432 622.026C805.526 622.786 804.381 623.203 803.198 623.202Z" fill="#004FFF"/>
<path id="Vector_36" d="M728.675 510.325C727.412 510.332 726.193 509.863 725.26 509.011C724.327 508.159 723.749 506.987 723.64 505.728C723.531 504.469 723.899 503.216 724.672 502.216C725.445 501.217 726.565 500.545 727.81 500.334L789.767 489.408C790.43 489.262 791.115 489.251 791.781 489.377C792.447 489.503 793.081 489.763 793.645 490.141C794.208 490.518 794.689 491.006 795.06 491.575C795.43 492.143 795.681 492.781 795.799 493.45C795.916 494.118 795.897 494.803 795.743 495.464C795.589 496.125 795.303 496.748 794.902 497.295C794.501 497.843 793.993 498.303 793.41 498.649C792.826 498.995 792.179 499.219 791.507 499.308L729.549 510.244C729.26 510.296 728.968 510.323 728.675 510.325Z" fill="#004FFF"/>
<path id="Vector_37" d="M689.859 469.124C688.752 469.126 687.675 468.762 686.795 468.089C685.916 467.416 685.283 466.471 684.996 465.4C684.708 464.33 684.781 463.195 685.205 462.171C685.628 461.147 686.377 460.291 687.336 459.737L749.665 423.708C750.819 423.051 752.186 422.878 753.467 423.226C754.748 423.574 755.839 424.415 756.503 425.566C757.167 426.716 757.349 428.082 757.009 429.367C756.67 430.651 755.837 431.749 754.692 432.421L692.363 468.45C691.601 468.89 690.738 469.122 689.859 469.124Z" fill="#004FFF"/>
<path id="Vector_38" d="M662.334 460.864C661.303 460.863 660.297 460.545 659.453 459.952C658.608 459.36 657.967 458.522 657.614 457.552C657.262 456.582 657.216 455.527 657.483 454.53C657.75 453.534 658.317 452.643 659.107 451.98L682.229 432.572C682.735 432.147 683.319 431.826 683.949 431.627C684.578 431.428 685.241 431.356 685.899 431.413C686.556 431.471 687.196 431.657 687.782 431.962C688.367 432.267 688.887 432.684 689.312 433.19C689.736 433.697 690.057 434.281 690.256 434.911C690.454 435.541 690.527 436.205 690.469 436.863C690.412 437.521 690.226 438.161 689.921 438.747C689.616 439.334 689.199 439.854 688.693 440.279L665.571 459.687C664.667 460.454 663.519 460.871 662.334 460.864Z" fill="#004FFF"/>
<path id="Vector_39" d="M670.728 501.652C669.546 501.653 668.401 501.237 667.495 500.477C666.589 499.716 665.979 498.661 665.774 497.495C665.569 496.33 665.781 495.129 666.372 494.104C666.964 493.08 667.898 492.297 669.009 491.893L801.459 443.599C802.08 443.373 802.739 443.272 803.398 443.301C804.058 443.33 804.706 443.488 805.304 443.768C805.902 444.047 806.44 444.442 806.886 444.929C807.332 445.416 807.678 445.986 807.904 446.607C808.129 447.228 808.23 447.888 808.202 448.548C808.173 449.208 808.014 449.856 807.735 450.455C807.456 451.054 807.062 451.592 806.575 452.038C806.088 452.485 805.518 452.831 804.898 453.057L672.448 501.35C671.896 501.549 671.315 501.651 670.728 501.652Z" fill="#004FFF"/>
<path id="Vector_40" d="M479.779 538.305H343.911C342.578 538.305 341.299 537.775 340.357 536.832C339.414 535.888 338.885 534.609 338.885 533.275C338.885 531.941 339.414 530.661 340.357 529.718C341.299 528.774 342.578 528.244 343.911 528.244H479.779C481.112 528.244 482.391 528.774 483.334 529.718C484.276 530.661 484.806 531.941 484.806 533.275C484.806 534.609 484.276 535.888 483.334 536.832C482.391 537.775 481.112 538.305 479.779 538.305Z" fill="#004FFF"/>
<path id="Vector_41" d="M371.406 577.212C370.154 577.204 368.949 576.729 368.028 575.879C367.108 575.028 366.537 573.865 366.429 572.616C366.321 571.367 366.683 570.122 367.444 569.126C368.204 568.13 369.309 567.454 370.542 567.231L435.556 555.761C436.843 555.584 438.149 555.913 439.2 556.679C440.251 557.445 440.964 558.588 441.19 559.869C441.417 561.15 441.138 562.469 440.414 563.549C439.689 564.629 438.575 565.386 437.305 565.662L372.281 577.141C371.992 577.19 371.7 577.213 371.406 577.212Z" fill="#004FFF"/>
<path id="Vector_42" d="M409.85 643.515C408.743 643.515 407.668 643.15 406.79 642.475C405.912 641.801 405.281 640.856 404.995 639.786C404.708 638.717 404.782 637.583 405.206 636.559C405.629 635.536 406.378 634.682 407.336 634.128L462.056 602.506C463.209 601.849 464.576 601.676 465.857 602.024C467.138 602.372 468.229 603.213 468.893 604.363C469.557 605.514 469.739 606.88 469.4 608.165C469.06 609.449 468.227 610.547 467.082 611.219L412.363 642.851C411.598 643.289 410.731 643.518 409.85 643.515Z" fill="#004FFF"/>
<path id="Vector_43" d="M476.602 635.144C475.571 635.143 474.565 634.825 473.721 634.233C472.876 633.64 472.235 632.802 471.882 631.832C471.53 630.863 471.484 629.808 471.751 628.811C472.018 627.814 472.585 626.924 473.375 626.26L496.497 606.852C496.999 606.402 497.587 606.058 498.225 605.839C498.862 605.621 499.537 605.534 500.21 605.582C500.882 605.63 501.538 605.813 502.138 606.12C502.738 606.426 503.271 606.851 503.703 607.368C504.136 607.885 504.461 608.484 504.658 609.129C504.855 609.774 504.92 610.452 504.85 611.123C504.78 611.794 504.576 612.444 504.25 613.034C503.923 613.624 503.482 614.143 502.951 614.559L479.829 633.967C478.925 634.727 477.783 635.143 476.602 635.144Z" fill="#004FFF"/>
<path id="Vector_44" d="M358.85 623.202C357.667 623.203 356.522 622.787 355.616 622.026C354.71 621.266 354.101 620.21 353.895 619.045C353.69 617.879 353.902 616.678 354.494 615.654C355.085 614.629 356.019 613.846 357.131 613.442L447.961 580.351C449.214 579.895 450.597 579.955 451.805 580.52C453.014 581.084 453.949 582.105 454.405 583.359C454.861 584.614 454.8 585.998 454.237 587.207C453.673 588.417 452.652 589.352 451.399 589.809L360.569 622.89C360.019 623.093 359.437 623.199 358.85 623.202Z" fill="#004FFF"/>
<path id="Vector_45" d="M433.374 510.325C433.081 510.323 432.788 510.296 432.499 510.244L370.542 499.308C369.869 499.219 369.222 498.995 368.639 498.649C368.055 498.303 367.548 497.843 367.147 497.295C366.746 496.748 366.46 496.125 366.305 495.464C366.151 494.803 366.132 494.118 366.25 493.45C366.367 492.781 366.619 492.143 366.989 491.575C367.359 491.006 367.84 490.518 368.404 490.141C368.967 489.763 369.601 489.503 370.267 489.377C370.934 489.251 371.619 489.262 372.281 489.408L434.248 500.334C435.493 500.545 436.614 501.217 437.386 502.216C438.159 503.216 438.527 504.469 438.419 505.728C438.31 506.987 437.731 508.159 436.798 509.011C435.865 509.863 434.647 510.332 433.384 510.325H433.374Z" fill="#004FFF"/>
<path id="Vector_46" d="M472.189 469.124C471.31 469.122 470.447 468.89 469.686 468.45L407.356 432.421C406.78 432.093 406.274 431.654 405.868 431.13C405.462 430.606 405.163 430.006 404.99 429.366C404.816 428.726 404.771 428.057 404.856 427.399C404.942 426.741 405.156 426.107 405.488 425.532C405.819 424.958 406.261 424.455 406.787 424.052C407.314 423.649 407.915 423.354 408.556 423.184C409.197 423.015 409.865 422.974 410.522 423.063C411.179 423.153 411.811 423.372 412.383 423.708L474.712 459.737C475.671 460.291 476.421 461.147 476.844 462.171C477.267 463.195 477.341 464.33 477.053 465.401C476.765 466.471 476.132 467.416 475.253 468.089C474.373 468.763 473.296 469.126 472.189 469.124Z" fill="#004FFF"/>
<path id="Vector_47" d="M499.714 460.864C498.533 460.869 497.388 460.451 496.487 459.687L473.365 440.279C472.859 439.854 472.442 439.334 472.138 438.747C471.833 438.161 471.647 437.521 471.589 436.863C471.532 436.205 471.604 435.541 471.803 434.911C472.002 434.281 472.322 433.697 472.747 433.19C473.171 432.684 473.691 432.267 474.277 431.962C474.862 431.657 475.502 431.471 476.16 431.413C476.818 431.356 477.48 431.428 478.11 431.627C478.739 431.826 479.324 432.147 479.829 432.572L502.951 451.98C503.741 452.643 504.308 453.534 504.575 454.53C504.842 455.527 504.797 456.582 504.444 457.552C504.092 458.522 503.45 459.36 502.606 459.952C501.762 460.545 500.756 460.863 499.724 460.864H499.714Z" fill="#004FFF"/>
<path id="Vector_48" d="M491.32 501.652C490.734 501.651 490.152 501.549 489.601 501.35L357.151 453.057C356.53 452.831 355.96 452.485 355.474 452.038C354.987 451.592 354.592 451.054 354.313 450.455C354.034 449.856 353.876 449.208 353.847 448.548C353.818 447.888 353.919 447.228 354.145 446.607C354.371 445.986 354.717 445.416 355.163 444.929C355.609 444.442 356.146 444.047 356.745 443.768C357.343 443.488 357.99 443.33 358.65 443.301C359.31 443.272 359.969 443.373 360.589 443.599L493.039 491.893C494.151 492.297 495.084 493.08 495.676 494.104C496.268 495.129 496.48 496.33 496.274 497.495C496.069 498.661 495.46 499.716 494.554 500.477C493.648 501.237 492.503 501.653 491.32 501.652Z" fill="#004FFF"/>
<g id="Bling Glow">
<path id="Vector_49" d="M818.64 534.281H682.772C682.372 534.281 681.989 534.122 681.706 533.838C681.423 533.555 681.264 533.172 681.264 532.771C681.264 532.371 681.423 531.987 681.706 531.704C681.989 531.421 682.372 531.262 682.772 531.262H818.64C819.04 531.262 819.424 531.421 819.706 531.704C819.989 531.987 820.148 532.371 820.148 532.771C820.148 533.172 819.989 533.555 819.706 533.838C819.424 534.122 819.04 534.281 818.64 534.281Z" fill="white"/>
<path id="Vector_50" d="M791.145 573.187C791.055 573.197 790.964 573.197 790.873 573.187L725.86 561.718C725.662 561.683 725.473 561.61 725.303 561.503C725.133 561.395 724.986 561.255 724.87 561.091C724.754 560.926 724.672 560.741 724.628 560.544C724.584 560.348 724.579 560.145 724.613 559.947C724.648 559.749 724.721 559.559 724.828 559.389C724.936 559.219 725.076 559.072 725.24 558.956C725.404 558.84 725.59 558.758 725.786 558.714C725.982 558.67 726.185 558.665 726.383 558.699L791.396 570.179C791.796 570.212 792.167 570.403 792.426 570.71C792.685 571.017 792.812 571.414 792.779 571.814C792.745 572.214 792.554 572.585 792.248 572.844C791.942 573.104 791.545 573.231 791.145 573.197V573.187Z" fill="white"/>
<path id="Vector_51" d="M752.702 639.49C752.436 639.488 752.176 639.415 751.948 639.279L682.059 598.873C681.712 598.673 681.459 598.343 681.355 597.957C681.252 597.57 681.306 597.158 681.506 596.811C681.706 596.464 682.035 596.211 682.422 596.107C682.808 596.003 683.22 596.057 683.567 596.257L753.436 636.673C753.724 636.839 753.949 637.095 754.076 637.403C754.204 637.71 754.226 638.05 754.14 638.372C754.054 638.693 753.865 638.977 753.601 639.179C753.337 639.381 753.014 639.491 752.682 639.49H752.702Z" fill="white"/>
<path id="Vector_52" d="M685.949 631.119C685.582 631.129 685.224 631.004 684.944 630.767L661.822 611.359C661.538 611.096 661.366 610.734 661.341 610.348C661.316 609.962 661.441 609.581 661.688 609.284C661.936 608.987 662.288 608.797 662.672 608.752C663.056 608.708 663.443 608.812 663.752 609.045L686.874 628.453C687.114 628.654 687.285 628.924 687.365 629.227C687.444 629.53 687.428 629.85 687.317 630.143C687.207 630.436 687.008 630.687 686.748 630.862C686.489 631.037 686.181 631.127 685.869 631.119H685.949Z" fill="white"/>
<path id="Vector_53" d="M803.701 619.207C803.527 619.206 803.353 619.176 803.189 619.116L676.941 573.096C676.742 573.041 676.555 572.946 676.394 572.816C676.233 572.685 676.1 572.523 676.004 572.339C675.908 572.155 675.851 571.954 675.836 571.747C675.822 571.54 675.85 571.332 675.919 571.137C675.989 570.941 676.098 570.762 676.239 570.61C676.381 570.459 676.552 570.338 676.742 570.256C676.932 570.173 677.138 570.131 677.345 570.132C677.552 570.132 677.757 570.176 677.947 570.259L804.184 616.249C804.539 616.351 804.843 616.58 805.041 616.892C805.238 617.204 805.314 617.578 805.255 617.942C805.195 618.307 805.004 618.637 804.718 618.87C804.432 619.103 804.07 619.223 803.701 619.207Z" fill="white"/>
<path id="Vector_54" d="M729.177 506.3C728.778 506.334 728.381 506.207 728.074 505.947C727.768 505.688 727.577 505.317 727.544 504.917C727.51 504.517 727.637 504.119 727.897 503.813C728.156 503.506 728.526 503.315 728.926 503.282L790.874 492.345C791.273 492.276 791.685 492.368 792.016 492.602C792.348 492.836 792.574 493.193 792.643 493.593C792.712 493.993 792.62 494.405 792.386 494.737C792.152 495.069 791.796 495.294 791.396 495.364L729.449 506.29L729.177 506.3Z" fill="white"/>
<path id="Vector_55" d="M690.352 465.099C690.02 465.1 689.697 464.99 689.433 464.788C689.169 464.586 688.98 464.302 688.894 463.98C688.808 463.659 688.83 463.319 688.958 463.012C689.085 462.704 689.31 462.448 689.598 462.282L751.928 426.253C752.274 426.053 752.686 425.999 753.073 426.102C753.459 426.206 753.789 426.459 753.989 426.806C754.188 427.153 754.243 427.565 754.139 427.952C754.035 428.339 753.782 428.669 753.436 428.869L691.106 464.888C690.879 465.026 690.618 465.099 690.352 465.099Z" fill="white"/>
<path id="Vector_56" d="M662.837 456.839C662.524 456.847 662.217 456.757 661.957 456.582C661.698 456.407 661.499 456.156 661.388 455.863C661.278 455.57 661.261 455.25 661.341 454.947C661.42 454.644 661.592 454.373 661.832 454.173L684.954 434.765C685.26 434.507 685.657 434.382 686.055 434.417C686.454 434.452 686.823 434.644 687.08 434.951C687.337 435.258 687.462 435.654 687.427 436.053C687.393 436.452 687.201 436.821 686.894 437.079L663.772 456.487C663.509 456.706 663.179 456.83 662.837 456.839Z" fill="white"/>
<path id="Vector_57" d="M671.231 497.628C670.877 497.627 670.534 497.502 670.262 497.273C669.991 497.045 669.809 496.728 669.748 496.379C669.687 496.029 669.75 495.67 669.928 495.363C670.105 495.055 670.385 494.821 670.719 494.7L803.169 446.406C803.536 446.305 803.928 446.347 804.266 446.523C804.603 446.7 804.862 446.997 804.989 447.357C805.116 447.716 805.103 448.11 804.952 448.46C804.801 448.81 804.523 449.09 804.174 449.243L671.724 497.537C671.565 497.593 671.399 497.624 671.231 497.628Z" fill="white"/>
<path id="Vector_58" d="M480.282 534.281H344.414C344.014 534.281 343.63 534.122 343.348 533.838C343.065 533.555 342.906 533.172 342.906 532.771C342.906 532.371 343.065 531.987 343.348 531.704C343.63 531.421 344.014 531.262 344.414 531.262H480.282C480.682 531.262 481.066 531.421 481.348 531.704C481.631 531.987 481.79 532.371 481.79 532.771C481.79 533.172 481.631 533.555 481.348 533.838C481.066 534.122 480.682 534.281 480.282 534.281Z" fill="white"/>
<path id="Vector_59" d="M371.909 573.187C371.509 573.22 371.112 573.093 370.806 572.834C370.5 572.574 370.309 572.204 370.275 571.803C370.242 571.403 370.369 571.006 370.628 570.699C370.888 570.393 371.258 570.202 371.658 570.168L436.671 558.689C437.071 558.619 437.482 558.712 437.814 558.946C438.146 559.18 438.371 559.536 438.441 559.936C438.51 560.336 438.418 560.748 438.184 561.08C437.95 561.412 437.594 561.638 437.194 561.707L372.181 573.177C372.091 573.19 372 573.193 371.909 573.187Z" fill="white"/>
<path id="Vector_60" d="M410.352 639.49C410.02 639.491 409.697 639.381 409.433 639.179C409.17 638.977 408.98 638.693 408.894 638.372C408.808 638.05 408.831 637.71 408.958 637.403C409.085 637.095 409.31 636.839 409.598 636.673L464.318 605.051C464.489 604.952 464.679 604.887 464.875 604.861C465.072 604.836 465.271 604.849 465.463 604.9C465.654 604.952 465.833 605.04 465.991 605.161C466.148 605.282 466.28 605.432 466.379 605.604C466.478 605.776 466.542 605.965 466.568 606.162C466.593 606.359 466.58 606.558 466.529 606.75C466.478 606.941 466.389 607.121 466.268 607.278C466.148 607.436 465.997 607.568 465.826 607.667L411.106 639.329C410.873 639.447 410.613 639.503 410.352 639.49Z" fill="white"/>
<path id="Vector_61" d="M477.105 631.12C476.792 631.127 476.485 631.038 476.225 630.863C475.966 630.688 475.767 630.437 475.656 630.144C475.546 629.851 475.529 629.531 475.609 629.228C475.688 628.925 475.86 628.654 476.1 628.453L499.222 609.045C499.372 608.906 499.549 608.799 499.741 608.731C499.934 608.662 500.139 608.634 500.343 608.647C500.547 608.66 500.746 608.714 500.929 608.807C501.111 608.9 501.273 609.028 501.404 609.186C501.535 609.343 501.633 609.525 501.691 609.721C501.75 609.917 501.768 610.123 501.744 610.327C501.721 610.53 501.656 610.726 501.554 610.904C501.452 611.081 501.316 611.236 501.152 611.359L478.03 630.767C477.77 630.986 477.444 631.11 477.105 631.12Z" fill="white"/>
<path id="Vector_62" d="M359.353 619.207C358.997 619.209 358.653 619.085 358.38 618.858C358.107 618.63 357.922 618.313 357.86 617.963C357.797 617.613 357.86 617.252 358.038 616.944C358.215 616.636 358.496 616.4 358.83 616.279L449.66 583.188C450.027 583.087 450.419 583.129 450.757 583.305C451.095 583.481 451.353 583.779 451.481 584.139C451.608 584.498 451.595 584.892 451.443 585.242C451.292 585.592 451.014 585.872 450.665 586.025L359.835 619.116C359.68 619.172 359.517 619.203 359.353 619.207Z" fill="white"/>
<path id="Vector_63" d="M433.876 506.3H433.605L371.657 495.373C371.258 495.304 370.902 495.078 370.668 494.746C370.434 494.414 370.342 494.003 370.411 493.603C370.48 493.202 370.706 492.846 371.037 492.612C371.369 492.378 371.78 492.286 372.18 492.355L434.128 503.292C434.528 503.325 434.898 503.516 435.157 503.823C435.416 504.129 435.543 504.526 435.51 504.927C435.477 505.327 435.286 505.697 434.979 505.957C434.673 506.216 434.276 506.343 433.876 506.31V506.3Z" fill="white"/>
<path id="Vector_64" d="M472.702 465.099C472.436 465.099 472.175 465.026 471.948 464.888L409.619 428.869C409.272 428.669 409.019 428.339 408.915 427.952C408.812 427.565 408.866 427.153 409.066 426.806C409.266 426.459 409.595 426.206 409.982 426.102C410.368 425.999 410.78 426.053 411.127 426.253L473.456 462.282C473.744 462.448 473.969 462.704 474.096 463.012C474.224 463.319 474.246 463.659 474.16 463.98C474.074 464.302 473.885 464.586 473.621 464.788C473.357 464.99 473.034 465.1 472.702 465.099Z" fill="white"/>
<path id="Vector_65" d="M500.217 456.839C499.851 456.847 499.493 456.722 499.212 456.487L476.09 437.079C475.938 436.951 475.813 436.795 475.721 436.619C475.63 436.443 475.574 436.251 475.556 436.053C475.539 435.856 475.561 435.657 475.62 435.467C475.68 435.278 475.776 435.103 475.904 434.951C476.031 434.799 476.187 434.673 476.363 434.582C476.539 434.49 476.731 434.434 476.928 434.417C477.126 434.4 477.325 434.421 477.514 434.481C477.703 434.541 477.878 434.637 478.03 434.765L501.152 454.173C501.392 454.373 501.564 454.644 501.643 454.947C501.722 455.25 501.706 455.57 501.595 455.863C501.485 456.156 501.286 456.407 501.027 456.582C500.767 456.757 500.46 456.847 500.147 456.839H500.217Z" fill="white"/>
<path id="Vector_66" d="M491.823 497.628C491.645 497.627 491.468 497.596 491.3 497.537L358.85 449.243C358.501 449.09 358.223 448.81 358.072 448.46C357.921 448.11 357.907 447.716 358.035 447.357C358.162 446.997 358.421 446.7 358.758 446.523C359.096 446.347 359.488 446.305 359.855 446.406L492.305 494.7C492.639 494.821 492.918 495.055 493.096 495.363C493.274 495.67 493.337 496.029 493.276 496.379C493.215 496.728 493.033 497.045 492.761 497.273C492.49 497.502 492.147 497.627 491.793 497.628H491.823Z" fill="white"/>
</g>
</g>
<g id="Copy">
<path id="Vector_67" d="M320.075 431.274C314.297 431.273 308.531 430.731 302.854 429.654C276.133 424.624 250.698 408.053 229.315 381.672C228.9 381.159 228.589 380.569 228.401 379.935C228.213 379.302 228.151 378.637 228.22 377.98C228.289 377.323 228.486 376.685 228.801 376.105C229.115 375.524 229.541 375.01 230.054 374.594C230.567 374.178 231.157 373.867 231.79 373.679C232.423 373.491 233.087 373.429 233.743 373.498C234.4 373.567 235.037 373.764 235.618 374.079C236.198 374.394 236.711 374.82 237.127 375.334C282.677 431.526 334.511 427.853 365.053 407.64C379.027 398.364 389.311 385.083 394.036 370.192C397.93 358.107 397.664 345.064 393.282 333.147C386.979 341.297 380.434 348.108 371.778 353.833C351.421 367.305 328.128 369.277 304.422 359.538C281.933 350.301 260.611 331.145 242.777 304.141C233.859 290.648 206.736 249.599 238.755 228.37C258.862 215.069 284.447 220.411 316.164 234.225L288.347 179.432C280.647 181.736 266.834 188.296 253.744 196.958C225.525 215.632 208.284 241.66 203.881 272.236C199.729 301.042 207.52 332.141 225.807 359.819C226.543 360.932 226.807 362.292 226.541 363.599C226.275 364.907 225.501 366.055 224.389 366.792C223.278 367.528 221.919 367.792 220.612 367.526C219.306 367.26 218.158 366.486 217.423 365.373C197.769 335.632 189.425 302.048 193.928 270.798C198.754 237.294 217.523 208.861 248.215 188.557C263.466 178.496 281.582 169.914 290.358 168.656C291.398 168.507 292.459 168.688 293.391 169.173C294.324 169.659 295.081 170.424 295.555 171.363L331.666 242.495C332.143 243.432 332.314 244.495 332.156 245.534C331.998 246.573 331.519 247.536 330.786 248.289C330.052 249.041 329.102 249.545 328.068 249.73C327.035 249.914 325.969 249.77 325.021 249.317C290.247 232.736 263.225 224.254 244.345 236.75C234.171 243.481 223.816 257.215 251.151 298.587C267.869 323.901 287.614 341.759 308.232 350.221C328.851 358.682 348.787 356.982 366.239 345.432C375.95 339.013 382.837 330.773 390.206 320.389C390.698 319.694 391.359 319.135 392.126 318.766C392.893 318.396 393.742 318.227 394.592 318.275C395.442 318.324 396.266 318.587 396.986 319.042C397.707 319.496 398.3 320.126 398.711 320.872C403.045 328.799 405.718 337.527 406.565 346.523C407.412 355.519 406.416 364.593 403.637 373.191C398.258 390.295 386.546 405.527 370.642 416.041C355.652 425.989 338.061 431.288 320.075 431.274Z" fill="#00FF8B"/>
<path id="Vector_68" d="M487.53 368.361C440.672 368.361 401.264 334.314 384.475 277.468C384.288 276.835 384.227 276.17 384.296 275.513C384.365 274.856 384.563 274.219 384.878 273.638C385.193 273.058 385.619 272.545 386.132 272.129C386.645 271.713 387.235 271.403 387.868 271.215C388.501 271.028 389.165 270.967 389.822 271.036C390.478 271.105 391.115 271.303 391.695 271.618C392.275 271.933 392.787 272.36 393.203 272.873C393.618 273.387 393.929 273.977 394.116 274.611C402.41 302.702 416.716 325.35 435.465 340.109C454.918 355.433 478.321 361.238 503.152 356.932C530.296 352.213 551.458 337.755 564.477 315.117C578.219 291.222 582.14 259.298 575.796 222.796C569.815 188.326 556.213 160.617 536.458 142.678C516.483 124.568 491.139 117.525 463.151 122.375C436.259 127.053 414.966 141.34 401.586 163.696C387.421 187.37 383.178 218.64 389.341 254.116C389.536 255.416 389.214 256.74 388.446 257.805C387.678 258.871 386.523 259.594 385.23 259.818C383.936 260.043 382.606 259.752 381.524 259.008C380.441 258.264 379.693 257.126 379.439 255.837C372.864 217.956 377.539 184.301 392.96 158.525C407.678 133.945 431.996 117.585 461.432 112.464C523.6 101.648 572.368 144.288 585.709 221.125C592.454 259.972 588.122 294.23 573.183 320.188C558.616 345.502 534.981 361.65 504.821 366.892C499.11 367.874 493.325 368.365 487.53 368.361ZM505.766 340.381C489.902 340.381 475.697 328.036 463.463 303.597C452.635 281.966 443.497 250.876 437.043 213.71C432.831 189.453 432.016 172.781 434.429 161.251C437.073 148.675 444.02 141.33 455.058 139.408C478.904 135.263 499.875 159.531 515.699 209.615C516.099 210.888 515.977 212.268 515.361 213.451C514.744 214.634 513.683 215.524 512.411 215.924C511.14 216.324 509.761 216.202 508.579 215.585C507.397 214.968 506.508 213.907 506.108 212.634C487.369 153.323 467.162 147.497 456.777 149.298C451.871 150.154 446.543 152.488 444.261 163.304C442.14 173.365 443.015 189.322 446.945 211.97C453.229 248.19 462.025 278.303 472.45 299.07C483.86 321.858 496.336 332.272 509.516 329.968C523.168 327.593 525.983 307.622 518.564 265.214C516.654 254.146 514.382 243.381 511.818 233.149C511.624 232.497 511.563 231.814 511.64 231.139C511.717 230.463 511.93 229.811 512.266 229.22C512.602 228.63 513.054 228.113 513.594 227.702C514.135 227.291 514.753 226.994 515.412 226.829C516.07 226.664 516.756 226.634 517.426 226.741C518.097 226.848 518.738 227.09 519.313 227.452C519.888 227.814 520.383 228.289 520.769 228.847C521.155 229.406 521.424 230.038 521.56 230.704C524.184 241.167 526.516 252.205 528.476 263.493C534.589 298.707 537.313 335.33 511.195 339.888C509.396 340.208 507.573 340.373 505.746 340.381H505.766Z" fill="#00FF8B"/>
<path id="Vector_69" d="M670.497 362.878C670.159 362.874 669.822 362.837 669.492 362.767L619.97 352.374C619.302 352.264 618.663 352.021 618.091 351.659C617.52 351.296 617.027 350.822 616.643 350.265C616.259 349.707 615.991 349.077 615.856 348.414C615.72 347.75 615.721 347.066 615.856 346.402C615.992 345.738 616.26 345.109 616.644 344.552C617.028 343.994 617.521 343.52 618.093 343.158C618.665 342.796 619.304 342.553 619.972 342.444C620.64 342.335 621.323 342.362 621.981 342.524L665.109 351.579C664.194 329.756 665.551 308.99 668.999 292.51L673.021 273.293C673.292 271.999 674.061 270.865 675.161 270.134C676.262 269.404 677.605 269.136 678.902 269.389C704.145 274.299 728.061 272.568 746.258 264.519C767.641 255.042 781.182 237.354 786.47 212.02C791.758 186.686 786.953 167.066 772.154 153.524C761.94 144.177 747.112 137.557 726.805 133.291L647.375 116.65C649.315 134.81 648.099 154.53 643.726 175.397L621.237 282.478C617.859 298.576 611.093 322.331 597.974 344.295C597.644 344.88 597.201 345.393 596.671 345.804C596.14 346.215 595.533 346.515 594.884 346.688C594.235 346.86 593.559 346.9 592.894 346.807C592.23 346.713 591.591 346.488 591.015 346.143C590.439 345.798 589.938 345.342 589.541 344.8C589.144 344.259 588.86 343.643 588.704 342.99C588.549 342.337 588.526 341.659 588.637 340.996C588.747 340.334 588.989 339.7 589.348 339.133C601.754 318.367 608.178 295.739 611.395 280.416L633.884 173.294C638.589 150.848 639.463 129.9 636.508 111.015C636.379 110.207 636.45 109.38 636.714 108.605C636.977 107.831 637.425 107.132 638.019 106.57C638.614 106.008 639.336 105.6 640.124 105.38C640.911 105.161 641.74 105.137 642.539 105.311L728.996 123.421C751.113 128.059 767.49 135.494 779.071 146.069C796.674 162.166 802.525 185.056 796.443 214.052C785.877 264.459 746.811 282.136 706.377 282.136C698.206 282.126 690.05 281.453 681.988 280.124L678.972 294.562C675.353 311.837 674.167 334.193 675.614 357.515C675.658 358.202 675.561 358.891 675.328 359.539C675.095 360.187 674.732 360.78 674.261 361.282C673.789 361.784 673.22 362.184 672.589 362.456C671.957 362.729 671.276 362.869 670.588 362.868L670.497 362.878ZM690.815 259.519C688.09 259.502 685.375 259.205 682.712 258.633L681.395 258.352C680.748 258.216 680.135 257.955 679.59 257.582C679.044 257.21 678.578 256.733 678.216 256.18C677.855 255.627 677.606 255.008 677.484 254.359C677.362 253.709 677.369 253.042 677.504 252.395L691.398 186.072C694.223 172.57 697.148 158.605 700.878 144.117C701.208 142.841 702.024 141.747 703.152 141.067C704.28 140.388 705.629 140.179 706.91 140.485C731.138 146.411 740.236 166.704 733.932 200.852C733.69 202.165 732.936 203.327 731.837 204.084C730.738 204.841 729.383 205.129 728.071 204.886C726.76 204.644 725.598 203.889 724.842 202.789C724.086 201.689 723.798 200.334 724.04 199.021C727.408 180.83 728.554 159.49 709.292 151.814C706.216 164.269 703.673 176.403 701.25 188.185L688.432 249.337C697.862 250.232 709.936 246.449 718.853 219.666C719.274 218.4 720.181 217.353 721.373 216.756C722.566 216.159 723.946 216.06 725.211 216.482C726.476 216.904 727.522 217.811 728.119 219.004C728.716 220.198 728.814 221.579 728.393 222.846C720.27 247.184 707.694 259.519 690.815 259.519Z" fill="#00FF8B"/>
<path id="Vector_70" d="M830.251 433.437C829.302 433.438 828.371 433.169 827.567 432.662L761.217 390.747C760.545 390.323 759.983 389.746 759.578 389.062C759.172 388.379 758.934 387.609 758.883 386.816C758.832 386.023 758.969 385.229 759.284 384.499C759.599 383.769 760.082 383.125 760.694 382.618C776.787 369.038 790.69 353.053 801.912 335.23L823.817 300.468C824.529 299.339 825.66 298.54 826.961 298.245C828.262 297.951 829.626 298.186 830.754 298.898C831.882 299.611 832.681 300.743 832.975 302.045C833.269 303.346 833.034 304.712 832.322 305.841L810.407 340.592C799.839 357.342 787.041 372.574 772.366 385.868L827.175 420.478C833.388 398.414 843.743 379.227 851.695 366.661L866.533 342.946C871.531 335.05 878.229 328.371 886.137 323.398L955.373 279.973C961.505 276.11 979.5 265.214 996.028 259.791L969.447 243.562C968.444 245.839 967.267 248.035 965.929 250.132C959.806 259.861 949.763 270.254 940.936 275.969L902.594 300.247C902.036 300.622 901.409 300.882 900.749 301.011C900.089 301.139 899.41 301.134 898.752 300.995C898.095 300.857 897.471 300.588 896.919 300.204C896.367 299.82 895.898 299.329 895.539 298.76C895.18 298.191 894.938 297.556 894.829 296.893C894.719 296.229 894.744 295.55 894.901 294.896C895.058 294.242 895.345 293.626 895.744 293.085C896.143 292.543 896.647 292.088 897.225 291.745L935.518 267.497C943.058 262.598 952.085 253.241 957.434 244.769C960.088 240.553 961.344 237.133 961.455 235.613C961.493 234.739 961.758 233.89 962.224 233.15C962.69 232.41 963.341 231.805 964.113 231.393C964.884 230.982 965.75 230.779 966.623 230.804C967.497 230.83 968.349 231.083 969.095 231.539L1011.76 257.567C1012.66 258.11 1013.36 258.919 1013.77 259.881C1014.19 260.842 1014.29 261.909 1014.07 262.933C1013.85 263.956 1013.31 264.885 1012.54 265.589C1011.76 266.294 1010.79 266.739 1009.75 266.864C996.631 268.343 975.188 279.44 960.822 288.495L891.515 331.96C884.883 336.131 879.267 341.734 875.078 348.359L860.139 372.074C851.785 385.314 840.677 406.04 835.147 429.594C834.889 430.699 834.264 431.684 833.375 432.389C832.487 433.094 831.386 433.478 830.251 433.477V433.437ZM881.703 315.65C881.464 315.65 881.225 315.63 880.99 315.59C879.67 315.403 878.478 314.699 877.677 313.633C876.876 312.567 876.531 311.226 876.717 309.905L886.338 242.234C888.449 228.953 892.933 215.954 898.331 207.392C899.75 205.09 901.386 202.931 903.217 200.942L843.813 163.434C844.758 176.252 843.26 192.612 841.983 206.526L841.652 210.169L835.218 279.712C835.048 281.001 834.386 282.174 833.37 282.986C832.355 283.797 831.065 284.183 829.771 284.063C828.478 283.944 827.281 283.327 826.431 282.343C825.581 281.359 825.146 280.085 825.215 278.786L831.971 205.611C833.519 188.779 835.63 165.728 832.232 154.691C831.929 153.709 831.934 152.657 832.247 151.677C832.56 150.698 833.165 149.838 833.981 149.213C834.797 148.588 835.784 148.228 836.811 148.183C837.837 148.137 838.853 148.407 839.721 148.956L914.698 196.294C915.469 196.779 916.094 197.464 916.507 198.277C916.919 199.089 917.103 199.999 917.039 200.908C916.975 201.817 916.665 202.692 916.143 203.439C915.621 204.186 914.906 204.776 914.074 205.148C912.516 205.842 910.053 207.724 906.836 212.754C902.192 220.119 898.14 231.991 896.28 243.733L886.639 311.324C886.471 312.517 885.88 313.61 884.974 314.404C884.068 315.198 882.907 315.641 881.703 315.65Z" fill="#00FF8B"/>
<g id="Copy Glow">
<path id="Vector_71" d="M320.568 427.239C315.029 427.237 309.504 426.722 304.06 425.7C278.163 420.83 253.453 404.672 232.603 378.946C232.351 378.635 232.232 378.236 232.274 377.838C232.315 377.44 232.513 377.075 232.824 376.823C233.134 376.571 233.532 376.452 233.93 376.494C234.328 376.535 234.693 376.733 234.945 377.044C255.343 402.197 279.43 418.003 304.613 422.732C326.437 426.899 349.024 422.356 367.546 410.075C382.193 400.386 392.98 386.401 397.896 370.726C402.713 355.846 401.534 339.673 394.609 325.651C387.33 335.713 380.253 343.822 370.351 350.372C351.008 363.17 328.851 365.031 306.252 355.755C284.417 346.79 263.647 328.096 246.205 301.676C236.151 286.463 230.301 273.927 228.33 263.372C225.676 249.166 230.029 238.219 241.238 230.784C261.898 217.111 289.493 224.747 324.348 241.027L290.69 174.804C283.381 176.313 267.266 183.577 252.277 193.497C223.193 212.744 205.419 239.618 200.865 271.21C196.592 300.871 204.575 332.835 223.344 361.238C223.562 361.573 223.638 361.981 223.557 362.373C223.476 362.765 223.244 363.109 222.911 363.331C222.747 363.44 222.563 363.516 222.369 363.554C222.176 363.592 221.977 363.591 221.783 363.552C221.59 363.513 221.406 363.436 221.243 363.325C221.079 363.215 220.939 363.073 220.83 362.908C201.649 333.881 193.476 301.172 197.879 270.788C202.554 238.31 220.79 210.712 250.608 190.982C265.235 181.303 283.12 172.801 291.313 171.634C291.624 171.586 291.943 171.638 292.223 171.783C292.503 171.927 292.73 172.157 292.871 172.439L328.982 243.582C329.123 243.864 329.173 244.182 329.127 244.494C329.08 244.805 328.938 245.095 328.721 245.323C328.501 245.549 328.215 245.699 327.905 245.754C327.594 245.808 327.275 245.763 326.992 245.624C291.142 228.52 263.114 219.888 242.857 233.3C224.691 245.323 226.531 266.502 248.668 300.015C265.758 325.923 286.075 344.234 307.348 352.968C328.972 361.842 350.164 360.071 368.672 347.856C378.836 341.136 385.973 332.624 393.573 321.909C393.723 321.701 393.921 321.535 394.151 321.424C394.381 321.313 394.635 321.262 394.89 321.275C395.146 321.29 395.394 321.37 395.61 321.507C395.827 321.644 396.004 321.834 396.127 322.06C400.229 329.572 402.756 337.843 403.555 346.366C404.354 354.89 403.406 363.487 400.771 371.631C395.634 387.971 384.425 402.519 369.195 412.6C354.78 422.166 337.863 427.258 320.568 427.239Z" fill="white"/>
<path id="Vector_72" d="M487.821 364.357C467.493 364.397 447.763 357.477 431.906 344.747C412.081 329.153 397.022 305.358 388.336 275.969C388.221 275.585 388.264 275.171 388.454 274.818C388.644 274.465 388.967 274.202 389.351 274.088C389.735 273.973 390.149 274.015 390.501 274.206C390.854 274.396 391.116 274.719 391.231 275.104C399.736 303.899 414.444 327.16 433.766 342.373C454.033 358.33 478.402 364.387 504.238 359.9C532.387 355 554.444 339.948 568.015 316.365C582.18 291.755 586.242 259.016 579.757 221.699C567.111 148.815 521.298 108.269 463.041 118.4C435.103 123.26 412.976 138.12 399.062 161.382C384.455 185.8 380.062 217.896 386.365 254.217C386.433 254.617 386.34 255.028 386.105 255.359C385.87 255.69 385.514 255.914 385.114 255.982C384.714 256.05 384.303 255.957 383.972 255.722C383.641 255.487 383.417 255.13 383.349 254.73C376.915 217.694 381.439 184.875 396.418 159.832C410.804 135.796 433.615 120.443 462.478 115.432C522.535 104.989 569.714 146.491 582.683 221.176C589.288 259.207 585.096 292.61 570.619 317.874C556.595 342.252 533.815 357.817 504.741 362.868C499.154 363.85 493.494 364.348 487.821 364.357ZM506.329 336.346C491.853 336.346 478.683 324.655 467.122 301.524C456.446 280.185 447.418 249.438 440.984 212.603C436.852 188.799 435.957 172.55 438.34 161.472C440.723 150.395 446.513 144.046 456.134 142.356C471.375 139.7 493.582 149.318 512.814 210.159C512.881 210.35 512.909 210.552 512.896 210.754C512.884 210.956 512.831 211.154 512.74 211.335C512.65 211.516 512.524 211.677 512.37 211.809C512.216 211.94 512.037 212.039 511.844 212.1C511.651 212.161 511.448 212.182 511.246 212.162C511.045 212.143 510.85 212.083 510.672 211.986C510.494 211.89 510.337 211.758 510.211 211.6C510.085 211.441 509.993 211.259 509.938 211.064C501.544 184.512 483.468 140.636 456.657 145.324C448.283 146.783 443.407 152.105 441.306 162.076C439.054 172.771 439.898 188.658 443.96 212.07C450.303 248.612 459.24 279.068 469.796 300.146C481.981 324.494 495.713 335.521 510.622 332.925C526.898 330.098 530.467 309.513 522.585 264.097C520.655 252.969 518.363 242.093 515.779 231.78C515.682 231.392 515.743 230.981 515.948 230.637C516.154 230.294 516.487 230.046 516.875 229.949C517.263 229.852 517.674 229.912 518.017 230.118C518.36 230.324 518.607 230.657 518.705 231.046C521.309 241.429 523.611 252.375 525.561 263.584C533.805 311.083 529.492 332.714 511.135 335.904C509.549 336.189 507.941 336.337 506.329 336.346Z" fill="white"/>
<path id="Vector_73" d="M671 358.853C670.9 358.863 670.799 358.863 670.698 358.853L621.177 348.46C620.809 348.356 620.494 348.117 620.296 347.79C620.098 347.464 620.031 347.074 620.109 346.7C620.187 346.326 620.404 345.995 620.715 345.774C621.027 345.554 621.411 345.46 621.79 345.512L669.381 355.493C668.074 332.352 669.381 310.107 672.98 292.771L677.002 273.554C677.082 273.166 677.311 272.825 677.64 272.605C677.969 272.385 678.372 272.303 678.761 272.377C704.708 277.408 729.368 275.617 748.198 267.276C770.677 257.315 784.892 238.813 790.421 212.281C795.95 185.75 790.813 164.913 775.03 150.465C764.343 140.676 748.972 133.784 728.031 129.387L643.736 111.689C646.43 130.806 645.425 151.793 640.72 174.17L618.331 281.261C615.014 297.067 608.369 320.44 595.491 341.991C595.395 342.171 595.263 342.331 595.104 342.459C594.944 342.587 594.76 342.681 594.563 342.736C594.366 342.791 594.16 342.805 593.957 342.778C593.755 342.75 593.56 342.682 593.384 342.577C593.209 342.471 593.057 342.332 592.937 342.166C592.817 342 592.732 341.811 592.688 341.611C592.643 341.412 592.64 341.205 592.677 341.004C592.715 340.803 592.793 340.611 592.907 340.441C605.564 319.252 612.109 296.222 615.376 280.637L637.825 173.495C642.61 150.646 643.505 129.226 640.469 109.949C640.431 109.708 640.452 109.461 640.531 109.229C640.609 108.998 640.743 108.789 640.92 108.621C641.097 108.453 641.312 108.33 641.547 108.264C641.782 108.197 642.029 108.188 642.268 108.238L728.725 126.349C750.208 130.866 766.052 137.989 777.151 148.151C793.769 163.374 799.268 185.126 793.457 212.815C787.646 240.503 772.848 259.619 749.414 269.993C725.206 280.718 698.375 279.048 679.646 275.577L675.926 293.355C672.236 310.922 671.02 333.6 672.498 357.243C672.512 357.45 672.483 357.657 672.413 357.852C672.344 358.047 672.235 358.225 672.093 358.376C671.952 358.527 671.781 358.647 671.591 358.73C671.401 358.812 671.197 358.854 670.99 358.853H671ZM691.106 255.424C688.703 255.413 686.307 255.15 683.958 254.639L682.641 254.368C682.447 254.327 682.263 254.248 682.099 254.136C681.935 254.024 681.795 253.881 681.687 253.714C681.579 253.548 681.504 253.362 681.468 253.167C681.431 252.971 681.434 252.771 681.475 252.577L695.359 186.313C698.184 172.842 701.099 158.917 704.809 144.509C704.91 144.126 705.158 143.799 705.498 143.596C705.837 143.393 706.243 143.33 706.628 143.423C729.027 148.896 737.009 167.298 731.027 199.675C730.955 200.075 730.727 200.43 730.393 200.662C730.06 200.894 729.648 200.984 729.248 200.912C728.848 200.84 728.493 200.612 728.261 200.278C728.029 199.944 727.939 199.532 728.011 199.131C733.601 168.948 727.006 152.236 707.312 146.733C703.803 160.557 700.988 173.958 698.264 186.978L684.682 251.772C701.994 255.333 714.419 245.031 722.663 220.29C722.729 220.103 722.831 219.93 722.964 219.782C723.097 219.634 723.257 219.513 723.436 219.427C723.616 219.341 723.81 219.292 724.009 219.281C724.207 219.27 724.406 219.299 724.593 219.365C724.781 219.431 724.953 219.533 725.101 219.666C725.249 219.799 725.369 219.959 725.455 220.139C725.541 220.318 725.591 220.513 725.602 220.711C725.612 220.91 725.584 221.109 725.518 221.296C717.968 243.924 706.397 255.424 691.106 255.424Z" fill="white"/>
<path id="Vector_74" d="M830.754 429.412C830.47 429.412 830.191 429.332 829.95 429.181L763.599 387.266C763.398 387.139 763.231 386.966 763.11 386.761C762.99 386.556 762.919 386.326 762.905 386.089C762.887 385.851 762.927 385.612 763.021 385.393C763.116 385.174 763.262 384.981 763.448 384.831C779.811 371.007 793.947 354.741 805.36 336.608L827.265 301.846C827.479 301.507 827.818 301.267 828.208 301.178C828.598 301.09 829.008 301.16 829.346 301.373C829.685 301.587 829.925 301.926 830.014 302.317C830.102 302.707 830.032 303.117 829.819 303.456L807.903 338.218C796.678 356.021 782.868 372.053 766.927 385.787L829.839 425.509C835.71 401.925 846.789 381.32 855.163 368.039L870.052 344.325C874.768 336.873 881.088 330.568 888.549 325.872L957.785 282.458C972.01 273.494 991.312 263.493 1005.38 260.535L968.11 237.787C967.092 241.327 965.535 244.69 963.495 247.757C957.614 257.084 947.994 267.034 939.569 272.518L901.216 296.765C901.049 296.887 900.86 296.973 900.658 297.018C900.457 297.064 900.248 297.067 900.045 297.028C899.843 296.99 899.65 296.91 899.479 296.793C899.309 296.677 899.164 296.527 899.053 296.352C898.943 296.178 898.87 295.982 898.838 295.778C898.806 295.574 898.817 295.366 898.869 295.166C898.921 294.966 899.013 294.779 899.14 294.616C899.267 294.453 899.426 294.319 899.608 294.22L937.9 269.972C945.943 264.72 955.242 255.142 960.912 246.147C963.626 241.831 965.315 237.766 965.426 235.261C965.435 234.998 965.513 234.742 965.653 234.519C965.792 234.296 965.988 234.113 966.22 233.99C966.453 233.867 966.713 233.807 966.976 233.816C967.239 233.826 967.495 233.904 967.718 234.044L1010.37 260.072C1010.64 260.236 1010.85 260.479 1010.97 260.768C1011.1 261.057 1011.13 261.378 1011.06 261.684C1010.99 261.991 1010.83 262.269 1010.6 262.48C1010.36 262.69 1010.07 262.823 1009.76 262.859C996.058 264.409 974.735 275.315 959.343 284.994L890.158 328.438C883.081 332.894 877.087 338.875 872.615 345.945L857.666 369.689C849.171 383.161 837.861 404.259 832.222 428.286C832.161 428.511 832.048 428.719 831.893 428.894C831.737 429.069 831.544 429.205 831.327 429.292C831.145 429.367 830.951 429.408 830.754 429.412ZM882.206 311.616H881.985C881.789 311.587 881.6 311.521 881.43 311.419C881.259 311.318 881.111 311.184 880.992 311.025C880.874 310.866 880.787 310.686 880.739 310.494C880.69 310.301 880.679 310.102 880.708 309.905L890.319 242.234C892.329 229.466 896.652 216.96 901.809 208.77C903.786 205.35 906.432 202.366 909.59 199.997L839.892 155.979C842.375 168.767 840.505 189.08 838.977 205.701L838.646 209.354L832.222 278.877C832.186 279.277 831.992 279.646 831.684 279.904C831.376 280.161 830.978 280.286 830.578 280.25C830.178 280.214 829.809 280.02 829.551 279.712C829.294 279.403 829.17 279.005 829.206 278.605L835.971 205.43C837.63 187.319 839.691 164.853 836.092 153.111C835.999 152.817 835.999 152.502 836.093 152.208C836.186 151.914 836.369 151.657 836.615 151.471C836.86 151.285 837.155 151.178 837.462 151.164C837.769 151.149 838.073 151.229 838.334 151.391L913.32 198.729C913.549 198.877 913.734 199.084 913.856 199.328C913.978 199.573 914.033 199.845 914.014 200.117C913.994 200.389 913.902 200.65 913.746 200.873C913.59 201.096 913.377 201.273 913.129 201.385C910.224 202.683 907.278 205.691 904.353 210.34C899.397 218.197 895.305 230.271 893.294 242.636L883.694 310.328C883.641 310.685 883.462 311.012 883.189 311.248C882.915 311.484 882.567 311.615 882.206 311.616Z" fill="white"/>
</g>
</g>
</g>
</svg>
